<?xml version="1.0" standalone="no"?>
<!DOCTYPE svg PUBLIC "-//W3C//DTD SVG 1.1//EN" "http://www.w3.org/Graphics/SVG/1.1/DTD/svg11.dtd" >
<svg xmlns="http://www.w3.org/2000/svg" xmlns:xlink="http://www.w3.org/1999/xlink" version="1.1">
<metadata>
Created by FontForge 20190801 at Wed Feb  5 15:11:35 2014
 By Jimmy Wärting
Copyright 2014 Adobe Systems Incorporated. All rights reserved.
</metadata>
<defs>
<font id="Streetwear" horiz-adv-x="662" >
  <font-face 
    font-family="Streetwear"
    font-weight="400"
    font-stretch="normal"
    units-per-em="1000"
    panose-1="0 0 0 0 0 0 0 0 0 0"
    ascent="750"
    descent="-250"
    x-height="664"
    cap-height="1076"
    bbox="-2242 -816 3130 1411"
    underline-thickness="50"
    underline-position="-100"
    unicode-range="U+0020-FB02"
  />
<missing-glyph horiz-adv-x="350" 
 />
    <glyph glyph-name="fi" unicode="fi" horiz-adv-x="698" 
d="M1029 621c19 20 21 -67 11 -78c-28 -29 -358 -361 -438 -437c-87 -82 -141 -106 -183 -106c-66 0 -96 48 -39 152c41 75 274 511 274 511l159 1s-143 -266 -186 -347c-15 -27 -42 -82 -34 -90c8 -9 32 13 58 35c38 32 341 320 378 359zM401 311c0 0 -15 -28 -39 -74h-155
c-100 -187 -212 -396 -222 -414c-82 -141 -135 -221 -262 -221c-62 0 -154 44 -154 132c0 114 165 159 368 280c0 0 50 98 115 223h-108c24 46 39 73 39 73l107 1c79 153 249 481 296 568c79 143 171 259 362 259c157 0 206 -99 210 -184v-10v-2v0c0 -12 -4 -26 -10 -40
c-27 -61 -99 -110 -160 -110s-89 49 -62 110c21 46 67 86 115 103c-8 32 -31 66 -93 66c-92 0 -167 -110 -219 -207c0 0 -217 -429 -283 -553h155zM-155 -161l34 66c-118 -85 -194 -147 -194 -193c0 -33 19 -43 39 -43c41 0 69 73 121 170z" />
    <glyph glyph-name="fl" unicode="fl" horiz-adv-x="706" 
d="M-155 -161l34 66c-118 -85 -194 -147 -194 -193c0 -33 19 -43 39 -43c41 0 69 73 121 170zM799 937c40 75 40 134 -51 134c-92 0 -167 -110 -219 -207c0 0 -217 -429 -283 -553h155s-15 -28 -39 -74h-155c-100 -187 -212 -396 -222 -414c-82 -141 -135 -221 -262 -221
c-62 0 -154 44 -154 132c0 114 165 159 368 280c0 0 50 98 115 223h-108c24 46 39 73 39 73l107 1c79 153 249 481 296 568c79 143 171 259 362 259c164 0 254 -114 177 -262c-73 -141 -255 -478 -298 -559c-15 -27 -42 -82 -34 -90c8 -9 32 13 58 35c38 32 341 320 378 359
v0c19 20 21 -67 11 -78c-28 -29 -358 -361 -438 -437c-87 -82 -141 -106 -183 -106c-66 0 -96 48 -39 152c41 75 315 589 419 785z" />
    <glyph glyph-name="f_t" unicode="ft" horiz-adv-x="702" 
d="M1029 621c19 20 21 -67 11 -78c-28 -29 -358 -361 -438 -437c-87 -82 -141 -106 -183 -106c-66 0 -96 48 -39 152c24 44 128 239 232 433h-107c17 32 27 50 27 50h107c63 119 122 231 160 302c40 75 40 134 -51 134c-92 0 -167 -110 -219 -207c0 0 -217 -429 -283 -553
h155s-15 -28 -39 -74h-155c-100 -187 -212 -396 -222 -414c-82 -141 -135 -221 -262 -221c-62 0 -154 44 -154 132c0 114 165 159 368 280c0 0 50 98 115 223h-108c24 46 39 73 39 73l107 1c79 153 249 481 296 568c79 143 171 259 362 259c164 0 254 -114 177 -262
c-30 -58 -78 -148 -127 -241l127 1s-10 -19 -27 -51h-127c-63 -116 -122 -226 -144 -268c-15 -27 -42 -82 -34 -90c8 -9 32 13 58 35c38 32 341 320 378 359zM-155 -161l34 66c-118 -85 -194 -147 -194 -193c0 -33 19 -43 39 -43c41 0 69 73 121 170z" />
    <glyph glyph-name="E_s" unicode="Es" horiz-adv-x="1134" 
d="M1476 621c24 20 17 -55 9 -68c-90 -135 -287 -282 -417 -345c-68 -175 -170 -208 -272 -208c-62 0 -150 20 -134 107v2c-90 -65 -179 -109 -253 -109c-266 0 -369 220 -236 402c101 139 233 193 341 214c-75 61 -88 177 -6 290c96 132 242 155 293 155
c244 0 264 -233 41 -382c-25 -16 -95 -10 -114 34c133 90 216 259 138 259c-66 0 -170 -48 -230 -141c-51 -79 -46 -174 11 -202c9 1 17 1 25 1c26 0 45 -84 8 -84c-100 0 -254 -62 -319 -207c-45 -103 12 -179 112 -179c147 0 385 242 516 396c27 83 73 147 171 154
c175 12 -9 -145 -9 -145l-40 -200c-4 -25 -10 -49 -16 -71c105 47 235 137 381 327zM841 91c12 16 25 30 38 50c-58 -18 -102 -34 -106 -55c-7 -37 43 -29 68 5zM920 233c10 30 18 66 27 113c2 10 3 19 5 29c-56 -62 -121 -127 -188 -186c44 16 99 29 156 44z" />
    <glyph glyph-name="C_s" unicode="Cs" horiz-adv-x="1051" 
d="M1393 621c24 20 17 -55 9 -68c-90 -135 -287 -282 -417 -345c-68 -175 -170 -208 -272 -208c-60 0 -143 18 -135 97c-79 -58 -157 -97 -225 -97c-229 0 -399 249 -132 624c205 288 444 362 558 362c195 0 134 -283 -38 -382c-81 -46 -114 34 -114 34
c133 90 216 259 138 259s-238 -105 -376 -329s-141 -408 28 -408c157 0 389 283 504 437c29 62 75 107 156 113c175 12 -9 -145 -9 -145l-40 -200c-4 -25 -10 -49 -16 -71c105 47 235 137 381 327zM837 233c10 30 18 66 27 113c3 14 5 29 7 44c-53 -66 -116 -136 -182 -198
c43 15 95 27 148 41zM690 86c-7 -37 43 -29 68 5c12 16 25 30 38 50c-58 -18 -102 -34 -106 -55z" />
    <glyph glyph-name="f_r" unicode="fr" horiz-adv-x="822" 
d="M1152 621c20 20 21 -67 11 -78c-28 -29 -357 -361 -438 -437c-86 -82 -142 -106 -183 -106c-66 0 -95 48 -39 152c41 75 96 184 145 266c51 85 -10 92 -34 104c-54 28 -132 116 -59 208c37 46 86 57 129 50c164 132 148 291 64 291c-92 0 -167 -110 -219 -207
c0 0 -217 -429 -283 -553h155s-15 -28 -39 -74h-155c-100 -187 -212 -396 -222 -414c-82 -141 -135 -221 -262 -221c-62 0 -154 44 -154 132c0 114 165 159 368 280c0 0 50 98 115 223h-108c24 46 39 73 39 73l107 1c79 153 249 481 296 568c79 143 171 259 362 259
c164 0 258 -208 17 -451c-23 -23 -63 -71 -71 -97c6 -7 13 -13 22 -18c77 -44 176 7 109 -121c-25 -48 -32 -53 -75 -134c-15 -27 -41 -82 -33 -90c8 -9 32 13 57 35c39 32 341 320 378 359zM-155 -161l34 66c-118 -85 -194 -147 -194 -193c0 -33 19 -43 39 -43
c41 0 69 73 121 170z" />
    <glyph glyph-name="T_i" unicode="Ti" horiz-adv-x="979" 
d="M997 853h-126c-88 -166 -230 -435 -264 -495c-170 -301 -329 -358 -477 -358c-235 0 -126 399 360 457c53 96 147 273 212 396h-295c-8 0 -15 4 -19 11s-5 15 -1 22l38 76c7 15 22 24 38 24h309h158h235v0c62 0 89 -50 62 -111s-99 -110 -160 -110c-54 0 -82 38 -70 88z
M148 111c62 0 172 60 294 260c-258 -48 -384 -260 -294 -260zM1310 621c19 20 21 -67 11 -78c-28 -29 -358 -361 -438 -437c-87 -82 -141 -106 -183 -106c-66 0 -96 48 -39 152c41 75 274 511 274 511l159 1s-143 -266 -186 -347c-15 -27 -42 -82 -34 -90c8 -9 32 13 58 35
c38 32 341 320 378 359z" />
    <glyph glyph-name=".notdef" horiz-adv-x="350" 
 />
    <glyph glyph-name="B" unicode="B" horiz-adv-x="1252" 
d="M1150 625c139 -29 172 -204 52 -384c-126 -189 -292 -241 -420 -241c-163 0 -216 77 -227 159c-116 -129 -223 -159 -330 -159c-235 0 -146 399 340 457c85 156 282 529 282 529h178s-17 -33 -44 -84c57 42 130 84 200 84c142 0 208 -140 42 -304
c-22 -22 -47 -41 -73 -57zM906 759c-23 -44 -48 -91 -72 -136c43 9 136 35 215 92c105 77 156 170 58 170c-78 0 -167 -88 -201 -126zM243 111c62 0 152 60 274 260c-258 -48 -364 -260 -274 -260zM1044 339c88 128 56 233 -81 208c-112 -20 -200 -83 -221 -99
c-23 -41 -40 -74 -50 -90c-9 -17 -19 -33 -28 -48c-42 -100 20 -168 96 -168c82 0 197 68 284 197z" />
    <glyph glyph-name="C" unicode="C" horiz-adv-x="702" 
d="M627 638c133 90 216 259 138 259s-238 -105 -376 -329s-141 -408 28 -408c187 0 384 201 460 306c27 37 63 -49 43 -80c-98 -154 -338 -386 -567 -386s-399 249 -132 624c205 288 444 362 558 362c195 0 134 -283 -38 -382c-81 -46 -114 34 -114 34z" />
    <glyph glyph-name="D" unicode="D" horiz-adv-x="1264" 
d="M1181 986c208 0 282 -250 112 -578s-383 -408 -511 -408c-163 0 -216 77 -227 159c-116 -129 -223 -159 -330 -159c-235 0 -146 399 340 457c85 156 282 529 282 529h178s-17 -33 -44 -84c57 42 130 84 200 84zM243 111c62 0 152 60 274 260
c-258 -48 -364 -260 -274 -260zM1127 489c130 240 98 396 -20 396c-78 0 -167 -88 -201 -126c-84 -159 -186 -352 -214 -401c-9 -17 -19 -33 -28 -48c-42 -100 20 -168 96 -168c114 0 237 108 367 347z" />
    <glyph glyph-name="h" unicode="h" horiz-adv-x="716" 
d="M1046 621c20 20 21 -67 11 -78c-28 -29 -357 -361 -438 -437c-86 -82 -142 -106 -183 -106c-66 0 -95 48 -39 152c41 75 71 133 116 217c42 77 54 121 20 121c-57 0 -324 -250 -454 -490h-158l529 986h158l-336 -627c200 262 345 305 393 305c77 0 138 -51 70 -178
c-26 -47 -48 -88 -91 -169c-15 -27 -41 -82 -33 -90c8 -9 32 13 57 35c39 32 341 320 378 359z" />
    <glyph glyph-name="a" unicode="a" 
d="M992 621c20 20 21 -67 11 -78c-28 -29 -358 -361 -438 -437c-86 -82 -141 -106 -183 -106c-56 0 -86 34 -59 108c-59 -59 -130 -108 -199 -108c-136 0 -177 160 -35 376s270 288 358 288c57 0 99 -53 111 -112c35 65 59 111 59 111l159 1s-143 -266 -186 -347
c-15 -27 -42 -82 -34 -90c9 -9 32 13 58 35c39 32 341 320 378 359zM235 158c52 0 146 88 210 196c65 108 75 196 24 196c-52 0 -146 -88 -211 -196c-64 -108 -74 -196 -23 -196z" />
    <glyph glyph-name="b" unicode="b" horiz-adv-x="661" 
d="M575 664c136 0 206 -154 25 -432c-105 -162 -260 -232 -349 -232c-75 0 -111 46 -118 99l-54 -99h-158l529 986h158l-229 -427c58 58 128 105 196 105zM477 354c64 108 75 196 23 196c-51 0 -146 -88 -210 -196s-75 -196 -23 -196c51 0 145 88 210 196z" />
    <glyph glyph-name="c" unicode="c" horiz-adv-x="562" 
d="M880 621c16 22 25 -61 17 -74c-147 -239 -399 -547 -645 -547c-226 0 -296 189 -159 408c112 178 249 256 338 256c144 0 229 -133 91 -317c-51 -67 -137 32 -137 32c64 54 119 171 67 171s-146 -87 -210 -196c-82 -138 -59 -235 59 -235c172 0 387 233 579 502z" />
    <glyph glyph-name="d" unicode="d" 
d="M992 621c20 20 21 -67 11 -78c-28 -29 -358 -361 -438 -437c-86 -82 -141 -106 -183 -106c-56 0 -86 34 -59 108c-59 -59 -130 -108 -199 -108c-136 0 -177 160 -35 376s270 288 358 288c57 0 99 -52 111 -111c114 214 231 433 231 433h158s-314 -588 -357 -669
c-15 -27 -42 -82 -34 -90c9 -9 32 13 58 35c39 32 341 320 378 359zM235 158c52 0 146 88 210 196c65 108 75 196 24 196c-52 0 -146 -88 -211 -196c-64 -108 -74 -196 -23 -196z" />
    <glyph glyph-name="e" unicode="e" horiz-adv-x="553" 
d="M885 621c16 22 25 -61 17 -74c-147 -239 -399 -547 -646 -547c-245 0 -295 189 -158 408c112 178 249 256 337 256c145 0 235 -138 92 -317c-86 -107 -185 -154 -272 -127c-22 6 -39 17 -53 30c-17 -80 18 -131 104 -131c172 0 387 233 579 502zM457 550
c-52 0 -146 -87 -211 -196c-2 -5 -5 -9 -8 -14c49 -38 105 0 152 39c64 54 118 171 67 171z" />
    <glyph glyph-name="f" unicode="f" horiz-adv-x="349" 
d="M725 814c0 -114 -158 -160 -360 -280c0 0 -53 -99 -119 -223h155s-15 -28 -39 -74h-155c-100 -187 -212 -396 -222 -414c-82 -141 -135 -221 -262 -221c-62 0 -154 44 -154 132c0 114 165 159 368 280c0 0 50 98 115 223h-108c24 46 39 73 39 73l107 1
c79 153 170 326 217 413c79 143 138 222 264 222c62 0 154 -45 154 -132zM450 709l-35 -66c119 85 195 147 195 193c0 33 -19 43 -39 43c-42 0 -69 -73 -121 -170zM-155 -161l34 66c-118 -85 -194 -147 -194 -193c0 -33 19 -43 39 -43c41 0 69 73 121 170z" />
    <glyph glyph-name="g" unicode="g" horiz-adv-x="638" 
d="M968 621c20 19 21 -67 11 -78c-180 -191 -372 -343 -539 -464c-66 -124 -121 -227 -138 -256c-83 -141 -135 -221 -262 -221c-62 0 -154 44 -154 132c0 114 165 159 367 279l54 103c-61 -63 -135 -116 -208 -116c-136 0 -177 160 -35 376s270 288 359 288
c58 0 100 -54 111 -114l59 114h158s-128 -244 -249 -470c158 133 346 311 466 427zM211 158c52 0 146 88 210 196c65 108 75 196 23 196c-51 0 -145 -88 -210 -196c-64 -108 -75 -196 -23 -196zM162 -161l34 66c-119 -85 -194 -147 -194 -193c0 -33 18 -43 39 -43
c41 0 69 73 121 170z" />
    <glyph glyph-name="j" unicode="j" horiz-adv-x="342" 
d="M672 621c20 19 21 -67 11 -78c-180 -191 -372 -343 -539 -464c-66 -124 -121 -227 -138 -256c-83 -141 -135 -221 -262 -221c-62 0 -154 44 -154 132c0 114 165 159 367 279l340 651h158s-128 -244 -249 -470c158 133 346 311 466 427zM-134 -161l34 66
c-119 -85 -194 -147 -194 -193c0 -33 18 -43 39 -43c41 0 69 73 121 170zM437 792c-61 0 -89 49 -61 110c27 61 98 111 160 111c61 0 88 -50 61 -111s-99 -110 -160 -110z" />
    <glyph glyph-name="l" unicode="l" horiz-adv-x="357" 
d="M680 621c19 20 21 -67 11 -78c-28 -29 -358 -361 -438 -437c-87 -82 -141 -106 -183 -106c-66 0 -96 48 -39 152c41 75 445 834 445 834h159s-314 -588 -357 -669c-15 -27 -42 -82 -34 -90c8 -9 32 13 58 35c38 32 341 320 378 359z" />
    <glyph glyph-name="i" unicode="i" horiz-adv-x="349" 
d="M680 621c19 20 21 -67 11 -78c-28 -29 -358 -361 -438 -437c-87 -82 -141 -106 -183 -106c-66 0 -96 48 -39 152c41 75 274 511 274 511l159 1s-143 -266 -186 -347c-15 -27 -42 -82 -34 -90c8 -9 32 13 58 35c38 32 341 320 378 359zM439 792c-61 0 -89 49 -62 110
c28 61 99 111 160 111c62 0 89 -50 62 -111s-99 -110 -160 -110z" />
    <glyph glyph-name="k" unicode="k" horiz-adv-x="716" 
d="M1046 621c20 20 21 -67 11 -78c-28 -29 -357 -361 -438 -437c-86 -82 -142 -106 -183 -106c-66 0 -95 48 -39 152c41 75 107 195 16 195c-58 0 -204 -107 -334 -347h-158l529 986h158l-270 -503l259 180l208 1l-300 -190h16c95 0 167 -104 90 -247c8 -9 32 13 57 35
c39 32 341 320 378 359z" />
    <glyph glyph-name="n" unicode="n" horiz-adv-x="716" 
d="M1047 621c19 20 21 -67 10 -78c-28 -29 -357 -361 -437 -437c-87 -82 -142 -106 -183 -106c-66 0 -96 48 -39 152c41 75 70 133 116 217c41 77 54 121 20 121c-58 0 -325 -250 -455 -490l2 3l-2 -3h-158l356 663h158l-163 -304c201 262 346 305 393 305
c78 0 139 -44 63 -189c-24 -47 -40 -77 -84 -158c-14 -27 -41 -82 -33 -90c8 -9 32 13 57 35c39 32 342 320 379 359z" />
    <glyph glyph-name="m" unicode="m" horiz-adv-x="1111" 
d="M1441 621c20 20 21 -67 11 -78c-28 -29 -357 -361 -438 -437c-86 -82 -142 -106 -183 -106c-66 0 -96 48 -39 152c41 75 71 133 116 217c42 77 54 121 20 121c-54 0 -293 -221 -429 -447c-14 -26 -23 -43 -23 -43h-158s147 277 196 370c41 77 54 120 20 120
c-58 0 -325 -250 -455 -490l2 3l-2 -3h-158l356 663h158l-163 -305c201 263 346 306 393 306c78 0 143 -50 63 -189c-21 -38 -35 -65 -62 -117c201 263 346 306 394 306c77 0 139 -44 63 -189c-25 -47 -41 -77 -84 -158c-15 -27 -42 -82 -33 -90c8 -9 32 13 57 35
c39 32 341 320 378 359z" />
    <glyph glyph-name="o" unicode="o" horiz-adv-x="587" 
d="M869 590c26 33 58 -36 48 -47c-9 -10 -223 -272 -378 -247c-10 -18 -21 -36 -33 -55c-109 -163 -227 -241 -337 -241c-136 0 -207 154 -75 376s270 288 359 288c18 0 24 -21 26 -45c23 25 50 40 76 40c55 0 68 -84 57 -153v0c-4 -28 -10 -62 -24 -101
c93 -17 258 155 281 185zM241 158c68 0 149 112 201 209c-33 52 -32 115 -13 168c-51 -30 -117 -99 -165 -181c-64 -108 -75 -196 -23 -196z" />
    <glyph glyph-name="p" unicode="p" horiz-adv-x="627" 
d="M557 701c136 0 206 -153 25 -432c-105 -162 -260 -232 -349 -232c-75 0 -111 46 -119 100l-246 -460h-159l530 986h158l-36 -67c58 58 128 105 196 105zM459 392c64 108 75 196 23 196s-146 -88 -210 -196c-65 -109 -75 -196 -23 -196c51 0 145 87 210 196z" />
    <glyph glyph-name="q" unicode="q" horiz-adv-x="609" 
d="M599 663h158l-529 -986h-158l248 464c-58 -57 -127 -104 -194 -104c-136 0 -177 161 -35 377s270 287 358 287c58 0 100 -53 111 -113zM258 392c-64 -109 -74 -196 -23 -196c52 0 146 87 210 196c65 108 75 196 24 196c-52 0 -146 -88 -211 -196z" />
    <glyph glyph-name="s" unicode="s" horiz-adv-x="427" 
d="M769 621c24 20 17 -55 9 -68c-90 -135 -287 -282 -417 -345c-68 -175 -170 -208 -272 -208c-62 0 -150 20 -134 107c12 69 130 92 258 126c10 30 18 66 27 113c28 157 38 352 213 364s-9 -145 -9 -145l-40 -200c-4 -25 -10 -49 -16 -71c105 47 235 137 381 327zM66 86
c-7 -37 43 -29 68 5c12 16 25 30 38 50c-58 -18 -102 -34 -106 -55z" />
    <glyph glyph-name="t" unicode="t" horiz-adv-x="402" 
d="M729 621c19 20 21 -67 11 -78c-28 -29 -407 -361 -487 -437c-87 -82 -141 -106 -183 -106c-66 0 -96 48 -39 152c20 37 127 238 232 433h-116c17 32 27 50 27 50h115c99 185 130 239 130 239h159s-38 -65 -130 -239l119 1s-10 -19 -27 -51h-119
c-66 -124 -126 -236 -143 -268c-15 -27 -42 -82 -34 -90c8 -9 32 13 58 35c38 32 390 320 427 359z" />
    <glyph glyph-name="r" unicode="r" horiz-adv-x="473" 
d="M803 621c20 20 21 -67 11 -78c-28 -29 -357 -361 -438 -437c-86 -82 -142 -106 -183 -106c-66 0 -95 48 -39 152c41 75 96 184 145 266c51 85 -10 92 -34 104c-54 28 -132 116 -59 208c58 72 145 58 194 26c53 -34 5 -101 -55 -166c6 -7 13 -13 22 -18
c77 -44 176 7 109 -121c-25 -48 -32 -53 -75 -134c-15 -27 -41 -82 -33 -90c8 -9 32 13 57 35c39 32 341 320 378 359z" />
    <glyph glyph-name="u" unicode="u" horiz-adv-x="670" 
d="M1001 621c19 20 21 -67 11 -78c-28 -29 -358 -361 -438 -437c-87 -82 -141 -106 -183 -106c-66 0 -96 48 -39 152c7 14 21 39 39 72c-107 -118 -231 -224 -296 -224c-100 0 -121 107 -64 212c41 75 242 451 242 451l159 1s-143 -266 -186 -347c-15 -27 -45 -90 13 -90
c56 0 225 178 285 282c46 87 82 154 82 154l159 1s-143 -266 -186 -347c-15 -27 -42 -82 -34 -90c8 -9 32 13 58 35c38 32 341 320 378 359z" />
    <glyph glyph-name="v" unicode="v" horiz-adv-x="550" 
d="M838 592c26 33 58 -36 48 -47s-215 -306 -377 -232c-165 -244 -255 -313 -339 -313c-114 0 -148 99 -103 214c52 134 181 449 181 449l158 1s-93 -240 -148 -379c-19 -48 -16 -92 29 -92c57 0 112 77 169 180c-32 106 76 293 158 293c29 0 79 -42 35 -123
c-18 -32 -74 -127 -74 -127c83 -57 238 143 263 176z" />
    <glyph glyph-name="w" unicode="w" horiz-adv-x="908" 
d="M1196 592c25 33 58 -36 48 -47s-215 -306 -377 -232c-165 -244 -255 -313 -340 -313c-114 0 -147 99 -102 214c10 25 22 55 35 89c-118 -144 -284 -303 -364 -303c-100 0 -121 107 -64 212c41 75 242 451 242 451l159 1s-168 -306 -211 -387c-15 -28 -44 -91 14 -91
c54 0 237 205 304 315c36 90 66 162 66 162l158 1s-103 -244 -158 -383c-19 -48 -16 -92 29 -92c57 0 122 81 179 184c-32 106 76 293 157 293c30 0 80 -42 36 -123c-18 -32 -74 -127 -74 -127c83 -57 238 143 263 176z" />
    <glyph glyph-name="x" unicode="x" horiz-adv-x="540" 
d="M896 621c19 21 21 -66 11 -77c-28 -29 -358 -361 -438 -437c-87 -82 -104 -106 -141 -106c-57 0 -76 48 -70 152c1 14 3 41 5 76c-124 -104 -235 -198 -267 -228l-169 -1c20 17 237 191 443 357c8 144 17 307 17 307h158s-4 -85 -10 -174c112 90 197 160 209 172
c19 21 53 -66 43 -77c-12 -13 -126 -108 -258 -218c-2 -20 -2 -37 -3 -49c-2 -28 -13 -118 6 -118c20 0 40 23 86 62c37 33 341 320 378 359z" />
    <glyph glyph-name="y" unicode="y" horiz-adv-x="675" 
d="M1005 621c20 19 21 -67 11 -78c-180 -191 -372 -343 -539 -464c-66 -124 -121 -227 -138 -256c-83 -141 -135 -221 -262 -221c-62 0 -154 44 -154 132c0 114 165 159 367 279l117 224c-110 -122 -240 -237 -307 -237c-100 0 -122 107 -65 212c41 75 242 451 242 451
l159 1s-143 -266 -186 -347c-15 -27 -44 -90 14 -90s237 192 290 293c1 2 2 4 3 4l73 140h158s-128 -244 -249 -470c158 133 346 311 466 427zM199 -161l34 66c-119 -85 -194 -147 -194 -193c0 -33 18 -43 39 -43c41 0 69 73 121 170z" />
    <glyph glyph-name="z" unicode="z" horiz-adv-x="537" 
d="M855 621c19 21 25 -75 14 -85c-173 -185 -318 -336 -482 -454c42 -71 42 -165 -18 -261c-91 -147 -247 -219 -399 -219c-94 0 -153 50 -153 124c0 127 186 194 426 338c-21 30 -61 47 -118 47c-47 0 -2 95 16 95c51 0 161 87 226 196c64 108 110 196 59 196
c-29 0 -130 -113 -241 -215c-18 -16 -66 25 -41 47l1 1c155 166 235 280 343 280c136 0 153 -185 11 -373c-59 -77 -131 -134 -199 -172c18 -10 34 -22 48 -35c160 114 325 288 507 490zM-23 -331c70 0 148 61 217 161c45 64 67 123 67 169c-210 -135 -332 -213 -332 -285
c0 -28 21 -45 48 -45z" />
    <glyph glyph-name="space" unicode=" " horiz-adv-x="350" 
 />
    <glyph glyph-name="E" unicode="E" horiz-adv-x="756" 
d="M933 466c26 37 62 -49 42 -80c-97 -154 -337 -386 -566 -386c-266 0 -369 220 -236 402c101 139 233 193 341 214c-75 61 -88 177 -6 290c96 132 242 155 293 155c244 0 264 -233 41 -382c-25 -16 -95 -10 -114 34c133 90 216 259 138 259c-66 0 -170 -48 -230 -141
c-51 -79 -46 -174 11 -202c9 1 17 1 25 1c26 0 45 -84 8 -84c-100 0 -254 -62 -319 -207c-45 -103 12 -179 112 -179c187 0 384 201 460 306z" />
    <glyph glyph-name="F" unicode="F" horiz-adv-x="934" 
d="M1349 973c5 -8 5 -17 1 -25l-32 -63c-9 -20 -29 -32 -51 -32h-306c-56 -105 -120 -219 -178 -327h177c9 0 18 -5 23 -13c4 -9 4 -19 -1 -27l-43 -84c-11 -17 -29 -27 -50 -27h-182c-4 -7 -7 -13 -10 -17c-170 -301 -329 -358 -477 -358c-235 0 -126 399 360 457
c53 96 147 273 212 396h-257c-8 0 -15 4 -19 11s-5 15 -1 22l38 76c7 15 22 24 38 24h271h158h307c9 0 17 -5 22 -13zM238 111c62 0 172 60 294 260c-258 -48 -384 -260 -294 -260z" />
    <glyph glyph-name="G" unicode="G" horiz-adv-x="962" 
d="M1293 621c19 20 21 -67 10 -78c-28 -29 -357 -361 -437 -437c-87 -82 -141 -106 -183 -106c-55 0 -85 33 -61 103c-80 -61 -171 -103 -269 -103c-229 0 -399 249 -132 624c205 288 449 362 563 362c224 0 209 -272 44 -382c-48 -32 -114 34 -114 34
c151 116 172 259 72 259c-78 0 -259 -105 -397 -329s-141 -408 28 -408c141 0 259 114 341 215h-122c-8 0 -15 5 -19 12s-4 16 0 23l38 63c7 13 21 20 36 20h216l78 1s-51 -96 -95 -177c-14 -27 -41 -82 -33 -90c8 -9 32 13 57 35c39 32 342 320 379 359z" />
    <glyph glyph-name="H" unicode="H" horiz-adv-x="1153" 
d="M1483 621c20 20 21 -67 11 -78c-28 -29 -358 -361 -438 -437c-86 -82 -141 -106 -183 -106c-66 0 -96 48 -39 152c13 23 59 109 117 217c-66 3 -171 6 -253 9c-4 -8 -8 -15 -11 -20c-170 -300 -319 -357 -467 -357c-235 0 -126 399 360 456c85 157 282 529 282 529h158
s-177 -339 -276 -523h257c127 238 279 523 279 523h158s-314 -588 -357 -669c-15 -27 -42 -82 -34 -90c9 -9 32 13 58 35c39 32 341 320 378 359zM238 111c62 0 172 60 294 261c-258 -49 -384 -261 -294 -261z" />
    <glyph glyph-name="I" unicode="I" horiz-adv-x="710" 
d="M992 1076c200 0 66 -144 -78 -251c-72 -140 -181 -387 -227 -467c-170 -301 -319 -358 -467 -358c-235 0 -126 399 360 457c43 78 91 207 139 298c-113 -9 -226 24 -281 83c-63 67 27 131 27 131c82 -110 210 -134 307 -113c2 5 4 8 4 8c36 69 90 212 216 212zM238 111
c62 0 172 60 294 260c-258 -48 -384 -260 -294 -260z" />
    <glyph glyph-name="J" unicode="J" horiz-adv-x="715" 
d="M847 986h178s-283 -540 -333 -628c-170 -301 -319 -358 -467 -358c-235 0 -146 399 340 457c85 156 282 529 282 529zM243 111c62 0 152 60 274 260c-258 -48 -364 -260 -274 -260z" />
    <glyph glyph-name="K" unicode="K" horiz-adv-x="1157" 
d="M1492 621c19 20 21 -67 11 -78c-28 -29 -360 -359 -438 -437c-69 -69 -103 -106 -190 -106c-123 0 -111 85 -100 199c10 114 0 190 -56 198l-1 -1v0c-9 -16 -16 -29 -21 -38c-170 -300 -329 -357 -477 -357c-235 0 -126 399 360 456c85 157 282 529 282 529h168
s-94 -179 -183 -348l397 348h194l-580 -469c113 -32 112 -111 109 -205c-4 -120 -18 -149 12 -149c29 0 68 38 135 99c37 33 341 320 378 359zM238 111c62 0 172 60 294 261c-258 -49 -384 -261 -294 -261z" />
    <glyph glyph-name="L" unicode="L" horiz-adv-x="1238" 
d="M690 319c203 -78 422 -198 560 -121c0 0 -30 -198 -212 -198c-146 0 -250 117 -427 203c-129 -166 -248 -202 -365 -202c-240 0 -208 448 285 360c7 11 14 23 21 36c20 34 81 148 138 255c-57 14 -105 39 -136 71c-62 67 28 131 28 131c43 -58 99 -92 157 -108
c36 68 62 118 62 118c36 69 110 212 237 212c201 0 154 -262 8 -369c-52 -38 -117 -59 -182 -66c-60 -115 -122 -232 -151 -283c-8 -13 -16 -27 -23 -39zM979 864c-16 -32 -38 -74 -62 -120c38 9 70 26 92 46c82 75 81 157 43 157c-33 0 -54 -46 -73 -83zM263 111
c48 0 103 35 190 141c-244 47 -281 -141 -190 -141z" />
    <glyph glyph-name="M" unicode="M" horiz-adv-x="1556" 
d="M1896 621c20 20 21 -67 11 -78c-28 -29 -357 -361 -438 -437c-86 -82 -150 -106 -193 -106c-66 0 -96 48 -39 152c27 48 184 357 305 587c48 91 47 161 -11 161c-89 0 -151 -58 -222 -170c-104 -198 -391 -729 -391 -729h-169s293 555 389 740c46 91 45 159 -13 159
c-97 0 -169 -75 -242 -204c-76 -143 -156 -294 -181 -338c-170 -300 -329 -357 -477 -357c-235 0 -146 399 340 456c85 157 282 529 282 529h188s-11 -21 -30 -57c72 54 139 77 211 77c90 0 149 -41 146 -120c84 84 171 120 260 120c134 0 188 -96 98 -265
c-90 -172 -202 -378 -226 -424c-15 -27 -42 -82 -33 -90c8 -9 31 13 57 35c39 32 341 320 378 359zM243 111c62 0 152 60 274 261c-258 -49 -364 -261 -274 -261z" />
    <glyph glyph-name="N" unicode="N" horiz-adv-x="1150" 
d="M1491 621c19 20 21 -67 10 -78c-28 -29 -367 -361 -447 -437c-87 -82 -141 -106 -184 -106c-65 0 -95 48 -38 152c26 48 184 357 304 587c48 91 47 161 -11 161c-99 0 -172 -78 -246 -210c-74 -142 -153 -289 -177 -332c-170 -300 -329 -357 -477 -357
c-235 0 -146 399 340 456c85 157 282 529 282 529h188s-11 -22 -30 -57c72 53 139 77 211 77c135 0 188 -96 98 -265c-90 -172 -201 -378 -226 -424c-14 -27 -41 -82 -33 -90c8 -9 32 13 57 35c39 32 342 320 379 359zM243 111c62 0 152 60 274 261
c-258 -49 -364 -261 -274 -261z" />
    <glyph glyph-name="P" unicode="P" horiz-adv-x="1118" 
d="M1181 986c140 0 214 -168 95 -377c-118 -209 -257 -281 -368 -281s-153 57 -167 120c-22 -42 -39 -74 -49 -90c-170 -301 -319 -358 -467 -358c-235 0 -146 399 340 457c85 156 282 529 282 529h178s-17 -33 -44 -84c57 42 130 84 200 84zM243 111c62 0 152 60 274 260
c-258 -48 -364 -260 -274 -260zM1094 636c67 114 101 249 13 249c-78 0 -167 -88 -201 -126c-21 -40 -43 -83 -65 -124c-11 -45 -40 -161 60 -161c67 0 127 47 193 162z" />
    <glyph glyph-name="O" unicode="O" horiz-adv-x="996" 
d="M1035 838c24 -11 42 -34 41 -67c-6 -361 -254 -771 -586 -771c-229 0 -399 249 -132 624c205 288 444 362 558 362c95 0 129 -67 119 -148zM512 76c154 0 334 291 400 551c-11 -8 -22 -16 -34 -23c-81 -46 -114 34 -114 34c133 90 216 259 138 259s-238 -105 -376 -329
s-182 -492 -14 -492z" />
    <glyph glyph-name="Q" unicode="Q" horiz-adv-x="996" 
d="M1076 771c-5 -283 -159 -597 -385 -719c-3 -94 -35 -183 -84 -229c-68 -63 -131 27 -131 27c59 45 94 102 109 161c-30 -7 -62 -11 -95 -11c-229 0 -399 249 -132 624c205 288 444 362 558 362c95 0 129 -67 119 -148c24 -11 42 -34 41 -67zM526 568
c-31 -51 -58 -104 -78 -155c65 -18 132 -60 175 -118c27 -37 45 -80 56 -124c100 107 190 288 233 456c-11 -8 -22 -16 -34 -23c-81 -46 -114 34 -114 34c133 90 216 259 138 259s-238 -105 -376 -329zM419 326c-36 -139 -15 -250 93 -250c27 0 55 9 83 26
c-2 63 -23 121 -55 156c-44 48 -90 67 -121 68z" />
    <glyph glyph-name="R" unicode="R" horiz-adv-x="1115" 
d="M1494 621c19 20 21 -67 10 -78c-28 -29 -359 -359 -437 -437c-70 -69 -104 -106 -190 -106c-123 0 -111 85 -101 199c11 112 -9 187 -63 197c-9 -16 -16 -30 -21 -38c-170 -301 -319 -358 -467 -358c-235 0 -146 399 340 457c85 156 282 529 282 529h178s-17 -33 -44 -84
c57 42 130 84 200 84c140 0 214 -168 95 -377c-98 -173 -210 -253 -308 -275v-22c-4 -120 -17 -149 12 -149c30 0 68 38 135 99c37 33 342 320 379 359zM906 759c-21 -40 -43 -83 -65 -124c-8 -33 -30 -104 3 -139c10 -6 19 -11 28 -18c8 -2 18 -4 29 -4
c67 0 127 47 193 162c67 114 101 249 13 249c-78 0 -167 -88 -201 -126zM243 111c62 0 152 60 274 260c-258 -48 -364 -260 -274 -260z" />
    <glyph glyph-name="S" unicode="S" horiz-adv-x="653" 
d="M645 988c210 57 355 -105 186 -307c-18 -22 -121 -45 -143 -13c147 168 60 251 -26 228c-87 -24 -113 -88 -104 -227c8 -117 65 -211 64 -340c-2 -143 -48 -266 -233 -316c-282 -77 -376 163 -257 339c0 0 163 36 134 0c-96 -168 6 -274 92 -251c68 18 77 70 83 164
c6 97 -22 164 -66 341c-26 171 69 328 270 382z" />
    <glyph glyph-name="T" unicode="T" horiz-adv-x="720" 
d="M1311 973c5 -8 5 -17 1 -25l-32 -63c-9 -20 -29 -32 -51 -32h-268c-88 -166 -230 -435 -264 -495c-170 -301 -329 -358 -477 -358c-235 0 -126 399 360 457c53 96 147 273 212 396h-295c-8 0 -15 4 -19 11s-5 15 -1 22l38 76c7 15 22 24 38 24h309h158h269
c9 0 17 -5 22 -13zM238 111c62 0 172 60 294 260c-258 -48 -384 -260 -294 -260z" />
    <glyph glyph-name="U" unicode="U" horiz-adv-x="961" 
d="M1292 621c19 20 21 -67 11 -78c-28 -29 -358 -361 -438 -437c-87 -82 -141 -106 -183 -106c-66 0 -96 48 -39 152c10 18 41 77 83 155c-124 -162 -271 -306 -401 -306c-134 0 -178 96 -88 265c91 172 229 435 254 480c44 79 81 156 40 156s-180 -124 -231 -270
c-80 27 -76 51 -56 95s186 280 386 280c66 0 137 -48 80 -152c-26 -48 -175 -324 -296 -555c-48 -90 -70 -161 -23 -161c168 0 507 520 616 695c48 90 81 152 81 152h159s-314 -588 -357 -669c-15 -27 -42 -82 -34 -90c8 -9 32 13 58 35c38 32 341 320 378 359z" />
    <glyph glyph-name="V" unicode="V" horiz-adv-x="788" 
d="M339 0c-134 0 -198 96 -108 266c91 171 229 434 254 480c44 79 81 156 40 156s-180 -124 -231 -270c-80 26 -76 50 -56 94s186 280 386 280c66 0 157 -48 100 -152c-26 -48 -175 -324 -296 -554c-48 -91 -70 -161 -23 -161c109 0 609 847 609 847h162
s-540 -986 -837 -986z" />
    <glyph glyph-name="W" unicode="W" horiz-adv-x="1251" 
d="M1477 986h162s-540 -986 -837 -986c-134 0 -178 96 -88 266c4 7 8 14 12 22c-121 -155 -262 -288 -387 -288c-134 0 -198 96 -108 266c91 171 229 434 254 480c44 79 101 156 60 156s-200 -124 -251 -270c-80 26 -76 50 -56 94s186 280 386 280c66 0 157 -48 100 -152
c-26 -48 -175 -324 -296 -554c-48 -91 -70 -161 -23 -161c154 0 453 438 585 645c65 119 108 201 108 201l159 1s-74 -138 -158 -295c-59 -111 -136 -255 -208 -391c-47 -91 -70 -161 -23 -161c109 0 609 847 609 847z" />
    <glyph glyph-name="X" unicode="X" horiz-adv-x="938" 
d="M1273 621c19 20 21 -67 11 -78c-28 -29 -358 -361 -438 -437c-87 -82 -141 -106 -183 -106c-96 0 -66 202 -38 367l-420 -367h-195l648 562c28 160 56 340 15 340s-180 -124 -231 -270c-80 27 -76 51 -56 95s187 280 387 280c97 0 116 -79 97 -262l279 241h186l-490 -427
c-25 -176 -53 -344 -22 -344c20 0 46 25 72 47c38 32 341 320 378 359z" />
    <glyph glyph-name="Y" unicode="Y" horiz-adv-x="940" 
d="M1098 986h168s-430 -808 -480 -896c-170 -301 -329 -358 -477 -358c-235 0 -126 400 360 457c30 54 74 136 124 228c-95 -102 -211 -189 -332 -189c-135 0 -178 96 -88 266c90 171 113 207 138 252c44 79 81 156 40 156s-180 -124 -231 -270c-80 27 -76 51 -56 95
s186 280 386 280c66 0 137 -48 80 -152c-26 -48 -60 -96 -181 -327c-47 -91 -70 -161 -22 -161c143 0 354 266 464 419c62 116 107 200 107 200zM327 -157c62 0 172 60 294 260c-258 -48 -384 -260 -294 -260z" />
    <glyph glyph-name="Z" unicode="Z" horiz-adv-x="860" 
d="M912 1007c178 0 173 -248 -61 -417c-73 -53 -180 -97 -233 -123c452 2 92 -706 -436 -714c-248 -4 -216 376 227 451c33 5 45 -72 45 -72c-305 -22 -417 -268 -237 -268c342 0 662 687 183 501v1l-1 -1c-40 -21 -46 37 -55 60s103 42 273 145c246 149 296 298 213 298
s-187 -92 -223 -198c-45 2 -97 36 -31 128c65 92 184 209 336 209z" />
    <glyph glyph-name="nine" unicode="9" horiz-adv-x="741" 
d="M525 664c113 0 235 -49 208 -237c-38 -263 -295 -589 -569 -589c-275 0 -151 221 -151 221h151s-104 -160 7 -160c95 0 221 136 321 301c0 0 -80 -89 -182 -89c-116 0 -205 71 -187 194c25 175 194 359 402 359zM571 384c45 101 25 183 -44 183s-162 -82 -206 -183
c-45 -101 -25 -183 44 -183s162 82 206 183z" />
    <glyph glyph-name="_0024.001" horiz-adv-x="0" 
 />
    <glyph glyph-name="a.end" horiz-adv-x="615" 
d="M565 106c-86 -82 -141 -106 -183 -106c-56 0 -86 34 -59 108c-59 -59 -130 -108 -199 -108c-136 0 -177 160 -35 376s270 288 358 288c57 0 99 -53 111 -112c35 65 59 111 59 111l159 1s-143 -266 -186 -347c-81 -145 -77 -220 -25 -211zM235 158c52 0 146 88 210 196
c65 108 75 196 24 196c-52 0 -146 -88 -211 -196c-64 -108 -74 -196 -23 -196z" />
    <glyph glyph-name="c.end" horiz-adv-x="562" 
d="M553 243c0 0 77 -42 29 -87c-103 -94 -218 -156 -330 -156c-226 0 -296 189 -159 408c112 178 249 256 338 256c144 0 229 -133 91 -317c-51 -67 -137 32 -137 32c64 54 119 171 67 171s-146 -87 -210 -196c-82 -138 -59 -235 59 -235c77 0 164 47 252 124z" />
    <glyph glyph-name="d.end" 
d="M565 106c-86 -82 -141 -106 -183 -106c-56 0 -86 34 -59 108c-59 -59 -130 -108 -199 -108c-136 0 -177 160 -35 376s270 288 358 288c57 0 99 -52 111 -111c114 214 231 433 231 433h158s-314 -588 -357 -669c-81 -145 -80 -201 -25 -211zM235 158c52 0 146 88 210 196
c65 108 75 196 24 196c-52 0 -146 -88 -211 -196c-64 -108 -74 -196 -23 -196z" />
    <glyph glyph-name="e.end" horiz-adv-x="553" 
d="M558 242c0 0 68 -53 29 -86c-108 -88 -218 -156 -331 -156c-245 0 -295 189 -158 408c112 178 249 256 337 256c145 0 235 -138 92 -317c-86 -107 -185 -154 -272 -127c-22 6 -39 17 -53 30c-17 -80 18 -131 104 -131c77 0 163 47 252 123zM457 550
c-52 0 -146 -87 -211 -196c-2 -5 -5 -9 -8 -14c49 -38 105 0 152 39c64 54 118 171 67 171z" />
    <glyph glyph-name="g.end" horiz-adv-x="595" 
d="M751 664l-449 -841c-83 -141 -135 -221 -262 -221c-62 0 -154 44 -154 132c0 114 165 159 367 279l54 103c-61 -63 -135 -116 -208 -116c-136 0 -177 160 -35 376s270 288 359 288c58 0 100 -54 111 -114l59 114h158zM211 158c52 0 146 88 210 196c65 108 75 196 23 196
c-51 0 -145 -88 -210 -196c-64 -108 -75 -196 -23 -196zM162 -161l34 66c-119 -85 -194 -147 -194 -193c0 -33 18 -43 39 -43c41 0 69 73 121 170z" />
    <glyph glyph-name="h.end" horiz-adv-x="673" 
d="M619 106c-86 -82 -142 -106 -183 -106c-66 0 -95 48 -39 152c41 75 71 133 116 217c42 77 54 121 20 121c-57 0 -324 -250 -454 -490h-158l529 986h158l-336 -627c200 262 345 305 393 305c77 0 138 -51 70 -178c-26 -47 -48 -88 -91 -169c-45 -81 -85 -213 -25 -211z
" />
    <glyph glyph-name="i.end" horiz-adv-x="310" 
d="M253 106c-87 -82 -141 -106 -183 -106c-66 0 -96 48 -39 152c41 75 274 511 274 511l159 1s-143 -266 -186 -347c-81 -145 -81 -224 -25 -211zM439 792c-61 0 -89 49 -62 110c28 61 99 111 160 111c62 0 89 -50 62 -111s-99 -110 -160 -110z" />
    <glyph glyph-name="j.end" horiz-adv-x="298" 
d="M455 664l-449 -841c-83 -141 -135 -221 -262 -221c-62 0 -154 44 -154 132c0 114 165 159 367 279l340 651h158zM-134 -161l34 66c-119 -85 -194 -147 -194 -193c0 -33 18 -43 39 -43c41 0 69 73 121 170zM437 792c-61 0 -89 49 -61 110c27 61 98 111 160 111
c61 0 88 -50 61 -111s-99 -110 -160 -110z" />
    <glyph glyph-name="k.end" horiz-adv-x="661" 
d="M619 106c-86 -82 -142 -106 -183 -106c-66 0 -95 48 -39 152c41 75 107 195 16 195c-58 0 -204 -107 -334 -347h-158l529 986h158l-270 -503l259 180l208 1l-300 -190h16c95 0 159 -101 90 -247c-24 -50 -41 -103 8 -121z" />
    <glyph glyph-name="l.end" horiz-adv-x="309" 
d="M253 106c-87 -82 -141 -106 -183 -106c-66 0 -96 48 -39 152c41 75 445 834 445 834h159s-314 -588 -357 -669c-81 -145 -74 -198 -25 -211z" />
    <glyph glyph-name="m.end" horiz-adv-x="1066" 
d="M1014 106c-86 -82 -142 -106 -183 -106c-66 0 -96 48 -39 152c41 75 71 133 116 217c42 77 54 121 20 121c-54 0 -293 -221 -429 -447c-14 -26 -23 -43 -23 -43h-158s147 277 196 370c41 77 54 120 20 120c-58 0 -325 -250 -455 -490l2 3l-2 -3h-158l356 663h158
l-163 -305c201 263 346 306 393 306c78 0 143 -50 63 -189c-21 -38 -35 -65 -62 -117c201 263 346 306 394 306c77 0 139 -44 63 -189c-25 -47 -41 -77 -84 -158c-81 -145 -71 -215 -25 -211z" />
    <glyph glyph-name="n.end" horiz-adv-x="671" 
d="M620 106c-87 -82 -142 -106 -183 -106c-66 0 -96 48 -39 152c41 75 70 133 116 217c41 77 54 121 20 121c-58 0 -325 -250 -455 -490l2 3l-2 -3h-158l356 663h158l-163 -304c201 262 346 305 393 305c78 0 139 -44 63 -189c-24 -47 -40 -77 -84 -158
c-76 -147 -74 -193 -24 -211z" />
    <glyph glyph-name="o.end" horiz-adv-x="587" 
d="M588 405c-76 -217 -260 -405 -419 -405c-136 0 -207 154 -75 376s270 288 359 288c18 0 24 -21 26 -45c23 25 50 40 76 40c55 0 68 -84 57 -153v0c-4 -28 -10 -62 -24 -101zM241 158c68 0 149 112 201 209c-33 52 -32 115 -13 168c-51 -30 -117 -99 -165 -181
c-64 -108 -75 -196 -23 -196z" />
    <glyph glyph-name="r.end" horiz-adv-x="473" 
d="M376 106c-86 -82 -142 -106 -183 -106c-66 0 -95 48 -39 152c41 75 96 184 145 266c51 85 -10 92 -34 104c-54 28 -132 116 -59 208c58 72 145 58 194 26c53 -34 5 -101 -55 -166c6 -7 13 -13 22 -18c77 -44 176 7 109 -121c-25 -48 -32 -53 -75 -134
c-80 -145 -59 -186 -25 -211z" />
    <glyph glyph-name="s.end" horiz-adv-x="427" 
d="M361 208c-68 -175 -170 -208 -272 -208c-62 0 -150 20 -134 107c12 69 130 92 258 126c10 30 18 66 27 113c28 157 38 352 213 364s-9 -145 -9 -145c-22 -89 -34 -218 -83 -357zM66 86c-7 -37 43 -29 68 5c12 16 25 30 38 50c-58 -18 -102 -34 -106 -55z" />
    <glyph glyph-name="t.end" horiz-adv-x="402" 
d="M253 106c-87 -82 -141 -106 -183 -106c-66 0 -96 48 -39 152c20 37 127 238 232 433h-116c17 32 27 50 27 50h115c99 185 130 239 130 239h159s-38 -65 -130 -239l119 1s-10 -19 -27 -51h-119c-66 -124 -126 -236 -143 -268c-81 -145 -64 -198 -25 -211z" />
    <glyph glyph-name="u.end" horiz-adv-x="670" 
d="M574 106c-87 -82 -141 -106 -183 -106c-66 0 -96 48 -39 152c7 14 21 39 39 72c-107 -118 -231 -224 -296 -224c-100 0 -121 107 -64 212c41 75 242 451 242 451l159 1s-143 -266 -186 -347c-15 -27 -45 -90 13 -90c56 0 225 178 285 282c46 87 82 154 82 154l159 1
s-143 -266 -186 -347c-81 -145 -70 -207 -25 -211z" />
    <glyph glyph-name="v.end" horiz-adv-x="550" 
d="M509 313c-165 -244 -255 -313 -339 -313c-114 0 -148 99 -103 214c52 134 181 449 181 449l158 1s-93 -240 -148 -379c-19 -48 -16 -92 29 -92c57 0 112 77 169 180c-32 106 76 293 158 293c29 0 79 -42 35 -123c-18 -32 -74 -127 -140 -230z" />
    <glyph glyph-name="w.end" horiz-adv-x="908" 
d="M867 313c-165 -244 -255 -313 -340 -313c-114 0 -147 99 -102 214c10 25 22 55 35 89c-118 -144 -284 -303 -364 -303c-100 0 -121 107 -64 212c41 75 242 451 242 451l159 1s-168 -306 -211 -387c-15 -28 -44 -91 14 -91c54 0 237 205 304 315c36 90 66 162 66 162
l158 1s-103 -244 -158 -383c-19 -48 -16 -92 29 -92c57 0 122 81 179 184c-32 106 76 293 157 293c30 0 80 -42 36 -123c-18 -32 -74 -127 -140 -230z" />
    <glyph glyph-name="x.end" horiz-adv-x="540" 
d="M469 107c-87 -82 -104 -106 -141 -106c-57 0 -76 48 -70 152c1 14 3 41 5 76c-124 -104 -235 -198 -267 -228l-169 -1c20 17 237 191 443 357c8 144 17 307 17 307h158s-4 -85 -10 -174c112 90 197 160 209 172c19 21 53 -66 43 -77c-12 -13 -126 -108 -258 -218
c-2 -20 -2 -37 -3 -49c-12 -169 -16 -208 43 -211z" />
    <glyph glyph-name="y.end" horiz-adv-x="639" 
d="M788 664l-449 -841c-83 -141 -135 -221 -262 -221c-62 0 -154 44 -154 132c0 114 165 159 367 279l117 224c-110 -122 -240 -237 -307 -237c-100 0 -122 107 -65 212c41 75 242 451 242 451l159 1s-143 -266 -186 -347c-15 -27 -44 -90 14 -90s237 192 290 293
c1 2 2 4 3 4l73 140h158zM199 -161l34 66c-119 -85 -194 -147 -194 -193c0 -33 18 -43 39 -43c41 0 69 73 121 170z" />
    <glyph glyph-name="z.end" horiz-adv-x="537" 
d="M300 166c112 -65 154 -209 69 -345c-91 -147 -247 -219 -399 -219c-94 0 -153 50 -153 124c0 127 186 194 426 338c-21 30 -61 47 -118 47c-47 0 -2 95 16 95c51 0 161 87 226 196c64 108 110 196 59 196c-29 0 -130 -113 -241 -215c-18 -16 -66 25 -41 47l1 1
c155 166 235 280 343 280c136 0 153 -185 11 -373c-59 -77 -131 -134 -199 -172zM-23 -331c70 0 148 61 217 161c45 64 67 123 67 169c-210 -135 -332 -213 -332 -285c0 -28 21 -45 48 -45z" />
    <glyph glyph-name="g.01" horiz-adv-x="638" 
d="M350 -82c289 -8 787 -25 787 -25s-66 -213 -285 -164c-180 27 -407 64 -559 87c-80 -137 -133 -214 -257 -214c-63 0 -155 44 -155 132c0 109 121 188 288 188h31l102 194c-60 -63 -135 -116 -207 -116c-136 0 -177 160 -35 376s270 288 359 288c57 0 100 -54 110 -114
l60 114h158s-275 -520 -397 -746zM206 158c52 0 146 88 211 196c64 108 75 196 23 196s-146 -88 -210 -196c-65 -108 -75 -196 -24 -196zM36 -331c41 0 68 71 119 167c-14 2 -23 3 -27 3c-78 0 -131 -77 -131 -127c0 -33 19 -43 39 -43z" />
    <glyph glyph-name="g.02" horiz-adv-x="638" 
d="M1141 -107c0 0 -169 -83 -285 -164c-180 27 -407 64 -559 87c-80 -137 -133 -214 -257 -214c-63 0 -155 44 -155 132c0 109 121 188 288 188h31l102 194c-60 -63 -135 -116 -207 -116c-136 0 -177 160 -35 376s270 288 359 288c57 0 100 -54 110 -114l60 114h158
s-275 -520 -397 -746c289 -8 787 -25 787 -25zM210 158c52 0 146 88 211 196c64 108 75 196 23 196s-146 -88 -210 -196c-65 -108 -75 -196 -24 -196zM40 -331c41 0 68 71 119 167c-14 2 -23 3 -27 3c-78 0 -131 -77 -131 -127c0 -33 19 -43 39 -43z" />
    <glyph glyph-name="g.03" horiz-adv-x="638" 
d="M1499 -107c0 0 -379 -210 -495 -291c-250 182 -563 224 -694 234c-2 -5 -5 -9 -7 -13c-82 -141 -135 -221 -261 -221c-63 0 -155 44 -155 132c0 109 121 188 288 188h31l102 194c-60 -63 -135 -116 -207 -116c-136 0 -177 160 -35 376s270 288 359 288
c57 0 100 -54 110 -114l60 114h158s-274 -518 -397 -745c371 -7 1143 -26 1143 -26zM212 158c52 0 146 88 211 196c64 108 75 196 23 196s-146 -88 -210 -196c-65 -108 -75 -196 -24 -196zM42 -331c41 0 68 70 117 163c-125 -19 -156 -79 -156 -120c0 -33 19 -43 39 -43z
" />
    <glyph glyph-name="g.04" horiz-adv-x="638" 
d="M1287 -327c84 -63 68 -189 -48 -270c-252 312 -616 427 -929 435c-4 -6 -7 -11 -9 -15c-82 -141 -135 -221 -261 -221c-63 0 -155 44 -155 132c0 95 148 167 318 184l103 198c-60 -63 -135 -116 -207 -116c-136 0 -177 160 -35 376s270 288 359 288
c57 0 100 -54 110 -114l60 114h158s-273 -516 -396 -743c348 -10 716 -86 932 -248zM210 158c52 0 146 88 211 196c64 108 75 196 23 196s-146 -88 -210 -196c-65 -108 -75 -196 -24 -196zM40 -331c40 0 67 69 116 161c-126 -21 -155 -78 -155 -118c0 -33 19 -43 39 -43z
" />
    <glyph glyph-name="f.01" horiz-adv-x="349" 
d="M36 -82c289 -8 788 -25 788 -25s-65 -213 -284 -164c-181 27 -408 64 -560 87c-80 -137 -133 -214 -257 -214c-62 0 -154 44 -154 132c0 109 120 188 287 188h32c48 92 122 235 164 315h-108c24 46 39 73 39 73l107 1c79 153 170 326 217 413c79 143 138 222 264 222
c62 0 154 -45 154 -132c0 -114 -158 -160 -360 -280c0 0 -53 -99 -119 -223h155s-15 -28 -39 -74h-155c-61 -114 -127 -237 -171 -319zM450 709l-35 -66c119 85 195 147 195 193c0 33 -19 43 -39 43c-42 0 -69 -73 -121 -170zM-276 -331c41 0 68 71 119 167
c-14 2 -24 3 -28 3c-78 0 -130 -77 -130 -127c0 -33 18 -43 39 -43z" />
    <glyph glyph-name="f.02" horiz-adv-x="349" 
d="M824 -107c0 0 -168 -83 -284 -164c-181 27 -408 64 -560 87c-80 -137 -133 -214 -257 -214c-62 0 -154 44 -154 132c0 109 120 188 287 188h32c48 92 122 235 164 315h-108c24 46 39 73 39 73l107 1c79 153 170 326 217 413c79 143 138 222 264 222
c62 0 154 -45 154 -132c0 -114 -158 -160 -360 -280c0 0 -53 -99 -119 -223h155s-15 -28 -39 -74h-155c-61 -114 -127 -237 -171 -319c289 -8 788 -25 788 -25zM450 709l-35 -66c119 85 195 147 195 193c0 33 -19 43 -39 43c-42 0 -69 -73 -121 -170zM-276 -331
c41 0 68 71 119 167c-14 2 -24 3 -28 3c-78 0 -130 -77 -130 -127c0 -33 18 -43 39 -43z" />
    <glyph glyph-name="f.03" horiz-adv-x="349" 
d="M1180 -107c0 0 -379 -210 -495 -291c-249 182 -562 224 -693 234c-4 -7 -6 -11 -7 -13v0c-83 -141 -135 -221 -262 -221c-62 0 -154 44 -154 132c0 109 120 188 287 188h32c48 92 122 235 164 315h-108c24 46 39 73 39 73l107 1c79 153 170 326 217 413
c79 143 138 222 264 222c62 0 154 -45 154 -132c0 -114 -158 -160 -360 -280c0 0 -53 -99 -119 -223h155s-15 -28 -39 -74h-155c-61 -114 -126 -236 -170 -318c371 -7 1143 -26 1143 -26zM450 709l-35 -66c119 85 195 147 195 193c0 33 -19 43 -39 43
c-42 0 -69 -73 -121 -170zM-276 -331c40 0 67 70 117 163c-126 -19 -156 -79 -156 -120c0 -33 18 -43 39 -43z" />
    <glyph glyph-name="f.04" horiz-adv-x="349" 
d="M970 -327c85 -63 68 -189 -48 -270c-252 312 -616 427 -929 435c-4 -8 -7 -13 -8 -15v0c-83 -141 -135 -221 -262 -221c-62 0 -154 44 -154 132c0 95 148 167 317 184c48 92 124 238 166 319h-108c24 46 39 73 39 73l107 1c79 153 170 326 217 413
c79 143 138 222 264 222c62 0 154 -45 154 -132c0 -114 -158 -160 -360 -280c0 0 -53 -99 -119 -223h155s-15 -28 -39 -74h-155c-60 -113 -125 -234 -169 -316c348 -10 716 -86 932 -248zM450 709l-35 -66c119 85 195 147 195 193c0 33 -19 43 -39 43
c-42 0 -69 -73 -121 -170zM-276 -331c40 0 67 69 116 161c-127 -21 -155 -78 -155 -118c0 -33 18 -43 39 -43z" />
    <glyph glyph-name="j.01" horiz-adv-x="342" 
d="M58 -82c289 -8 787 -25 787 -25s-65 -213 -284 -164c-181 27 -408 64 -560 87c-80 -137 -133 -214 -257 -214c-62 0 -154 44 -154 132c0 109 120 188 287 188h32l388 742h158s-275 -520 -397 -746zM-255 -331c41 0 68 71 119 167c-14 2 -24 3 -28 3
c-78 0 -130 -77 -130 -127c0 -33 18 -43 39 -43zM437 792c-61 0 -89 49 -61 110c27 61 98 111 160 111c61 0 88 -50 61 -111s-99 -110 -160 -110z" />
    <glyph glyph-name="j.02" horiz-adv-x="342" 
d="M58 -82c289 -8 787 -25 787 -25s-168 -83 -284 -164c-181 27 -408 64 -560 87c-80 -137 -133 -214 -257 -214c-62 0 -154 44 -154 132c0 109 120 188 287 188h32l388 742h158s-275 -520 -397 -746zM-255 -331c41 0 68 71 119 167c-14 2 -24 3 -28 3
c-78 0 -130 -77 -130 -127c0 -33 18 -43 39 -43zM437 792c-61 0 -89 49 -61 110c27 61 98 111 160 111c61 0 88 -50 61 -111s-99 -110 -160 -110z" />
    <glyph glyph-name="j.03" horiz-adv-x="342" 
d="M1201 -107c0 0 -379 -210 -495 -291c-250 182 -563 224 -693 234c-3 -5 -5 -9 -7 -13c-83 -141 -135 -221 -262 -221c-62 0 -154 44 -154 132c0 109 120 188 287 188h32l388 742h158s-274 -518 -396 -745c371 -7 1142 -26 1142 -26zM-255 -331c40 0 67 70 117 163
c-126 -19 -156 -79 -156 -120c0 -33 18 -43 39 -43zM437 792c-61 0 -89 49 -61 110c27 61 98 111 160 111c61 0 88 -50 61 -111s-99 -110 -160 -110z" />
    <glyph glyph-name="j.04" horiz-adv-x="342" 
d="M991 -327c85 -63 68 -189 -48 -270c-252 312 -616 427 -929 435c-3 -6 -6 -11 -8 -15c-83 -141 -135 -221 -262 -221c-62 0 -154 44 -154 132c0 95 148 167 317 184l390 746h158s-272 -516 -396 -743c348 -10 717 -86 932 -248zM-255 -331c40 0 67 69 116 161
c-127 -21 -155 -78 -155 -118c0 -33 18 -43 39 -43zM437 792c-61 0 -89 49 -61 110c27 61 98 111 160 111c61 0 88 -50 61 -111s-99 -110 -160 -110z" />
    <glyph glyph-name="y.01" horiz-adv-x="675" 
d="M391 -82c289 -8 787 -25 787 -25s-65 -213 -284 -164c-181 27 -408 64 -560 87c-80 -137 -133 -214 -257 -214c-62 0 -154 44 -154 132c0 109 120 188 287 188h32l166 316c-110 -123 -241 -238 -308 -238c-100 0 -122 108 -65 212c41 75 242 452 242 452h159
s-143 -265 -186 -347c-15 -27 -44 -90 14 -90s237 192 290 294c1 2 3 3 4 4l72 139h158s-275 -520 -397 -746zM78 -331c41 0 68 71 119 167c-14 2 -24 3 -28 3c-78 0 -130 -77 -130 -127c0 -33 18 -43 39 -43z" />
    <glyph glyph-name="y.02" horiz-adv-x="675" 
d="M1178 -107c0 0 -168 -83 -284 -164c-181 27 -408 64 -560 87c-80 -137 -133 -214 -257 -214c-62 0 -154 44 -154 132c0 109 120 188 287 188h32l166 316c-110 -123 -241 -238 -308 -238c-100 0 -122 108 -65 212c41 75 242 452 242 452h159s-143 -265 -186 -347
c-15 -27 -44 -90 14 -90s237 192 290 294c1 2 3 3 4 4l72 139h158s-275 -520 -397 -746c289 -8 787 -25 787 -25zM78 -331c41 0 68 71 119 167c-14 2 -24 3 -28 3c-78 0 -130 -77 -130 -127c0 -33 18 -43 39 -43z" />
    <glyph glyph-name="y.03" horiz-adv-x="675" 
d="M1534 -107c0 0 -379 -210 -495 -291c-250 182 -563 224 -693 234c-3 -5 -5 -9 -7 -13c-83 -141 -135 -221 -262 -221c-62 0 -154 44 -154 132c0 109 120 188 287 188h32l166 316c-110 -123 -241 -238 -308 -238c-100 0 -122 108 -65 212c41 75 242 452 242 452h159
s-143 -265 -186 -347c-15 -27 -44 -90 14 -90s237 192 290 294c1 2 3 3 4 4l72 139h158s-274 -518 -396 -745c371 -7 1142 -26 1142 -26zM78 -331c40 0 67 70 117 163c-126 -19 -156 -79 -156 -120c0 -33 18 -43 39 -43z" />
    <glyph glyph-name="y.04" horiz-adv-x="675" 
d="M1324 -327c85 -63 68 -189 -48 -270c-252 312 -616 427 -929 435c-3 -6 -6 -11 -8 -15c-83 -141 -135 -221 -262 -221c-62 0 -154 44 -154 132c0 95 148 167 317 184l168 320c-110 -123 -241 -238 -308 -238c-100 0 -122 108 -65 212c41 75 242 452 242 452h159
s-143 -265 -186 -347c-15 -27 -44 -90 14 -90s237 192 290 294c1 2 3 3 4 4l72 139h158s-272 -516 -396 -743c348 -10 717 -86 932 -248zM78 -331c40 0 67 69 116 161c-127 -21 -155 -78 -155 -118c0 -33 18 -43 39 -43z" />
    <glyph glyph-name="z.01" horiz-adv-x="537" 
d="M409 -85c288 -9 663 -22 663 -22s-65 -213 -284 -164c-136 20 -298 46 -435 67c-93 -130 -239 -194 -383 -194c-62 0 -153 44 -153 132c0 109 120 188 287 188c26 0 76 -1 140 -3c45 114 3 192 -119 192c-47 0 -2 95 16 95c51 0 161 87 226 196c64 108 110 196 59 196
c-29 0 -130 -113 -241 -214c-18 -17 -66 24 -41 46l1 1c120 117 235 280 343 280c136 0 153 -185 11 -373c-59 -77 -131 -134 -199 -172c89 -51 135 -145 109 -251zM-25 -331c67 0 146 58 214 153c-68 10 -115 17 -126 17c-78 0 -130 -77 -130 -127c0 -33 21 -43 42 -43z
" />
    <glyph glyph-name="z.02" horiz-adv-x="537" 
d="M1072 -107c0 0 -168 -83 -284 -164c-159 24 -306 55 -428 78c-92 -138 -242 -205 -389 -205c-62 0 -154 44 -154 132c0 109 120 188 287 188c26 0 76 -1 140 -3c45 114 3 192 -119 192c-47 0 -2 95 16 95c51 0 161 87 226 196c64 108 110 196 59 196
c-29 0 -130 -113 -241 -214c-18 -17 -66 24 -41 46l1 1c120 117 235 280 343 280c136 0 153 -185 11 -373c-59 -77 -131 -134 -199 -172c89 -51 135 -145 109 -251c288 -9 663 -22 663 -22zM194 -170c1 1 2 2 3 4c-28 3 -53 5 -75 5c-134 0 -189 -77 -189 -127
c0 -33 20 -43 40 -43c69 0 152 61 221 161z" />
    <glyph glyph-name="z.03" horiz-adv-x="537" 
d="M1428 -107c0 0 -379 -210 -495 -291c-187 136 -409 194 -564 219c-91 -148 -246 -219 -398 -219c-62 0 -154 44 -154 132c0 109 120 188 287 188c23 0 73 -1 140 -2c45 113 3 191 -119 191c-47 0 -2 95 16 95c51 0 161 87 226 196c64 108 110 196 59 196
c-29 0 -130 -113 -241 -214c-18 -17 -66 24 -41 46l1 1c120 117 235 280 343 280c136 0 153 -185 11 -373c-59 -77 -131 -134 -199 -172c89 -51 134 -144 110 -249c396 -9 1018 -24 1018 -24zM194 -170c2 2 4 5 6 8c-10 0 -16 1 -19 1c-204 0 -248 -77 -248 -127
c0 -33 19 -43 39 -43c70 0 153 61 222 161z" />
    <glyph glyph-name="z.04" horiz-adv-x="537" 
d="M1218 -327c85 -63 68 -189 -48 -270c-217 269 -517 391 -796 425c-2 -2 -3 -5 -5 -7c-91 -147 -246 -219 -398 -219c-62 0 -154 44 -154 132c0 109 194 188 392 188h36c43 112 1 189 -120 189c-47 0 -2 95 16 95c51 0 161 87 226 196c64 108 110 196 59 196
c-29 0 -130 -113 -241 -214c-18 -17 -66 24 -41 46l1 1c120 117 235 280 343 280c136 0 153 -185 11 -373c-59 -77 -131 -134 -199 -172c89 -51 135 -145 109 -251c310 -23 619 -99 809 -242zM-28 -331c69 0 153 61 222 161l6 9c-223 -1 -267 -77 -267 -127
c0 -33 19 -43 39 -43z" />
    <glyph glyph-name="q.01" horiz-adv-x="609" 
d="M349 -103c72 -32 106 -90 106 -150c0 -91 -92 -145 -154 -145c-119 0 -199 76 -133 236c-10 0 -20 1 -32 1c-33 0 -442 -11 -752 -237c-116 81 -495 291 -495 291s1134 28 1314 29l115 219c-58 -57 -127 -104 -194 -104c-136 0 -177 161 -35 377s270 287 358 287
c58 0 100 -53 111 -113l41 75h158l-409 -766h1zM235 196c52 0 146 87 210 196c65 108 75 196 24 196c-52 0 -146 -88 -211 -196c-64 -109 -74 -196 -23 -196zM300 -331c20 0 54 22 54 55c0 29 -5 64 -50 87c-34 -75 -43 -142 -4 -142z" />
    <glyph glyph-name="g.05" horiz-adv-x="638" 
d="M593 664h158s-399 -754 -449 -840c-83 -142 -135 -222 -262 -222c-62 0 -154 44 -154 132c0 38 15 73 42 102c-128 -9 -445 -50 -697 -234c-116 81 -495 291 -495 291s1296 29 1437 29v0v0l-41 -83c-78 0 -130 -77 -130 -127c0 -33 18 -43 39 -43c41 0 69 73 121 170
l145 277c-61 -62 -135 -116 -208 -116c-136 0 -177 160 -35 376s270 288 359 288c58 0 100 -54 111 -114zM211 158c52 0 146 88 210 196c65 109 75 196 23 196c-51 0 -145 -87 -210 -196c-64 -108 -75 -196 -23 -196z" />
    <glyph glyph-name="y.05" horiz-adv-x="675" 
d="M631 664h158s-400 -754 -450 -841c-83 -141 -135 -221 -262 -221c-62 0 -154 44 -154 132c0 38 15 73 42 102c-128 -9 -445 -50 -697 -234c-116 81 -495 291 -495 291s1296 29 1437 29v0h1l-41 -83c-78 0 -131 -77 -131 -127c0 -33 18 -43 39 -43c41 0 69 73 121 170
c45 87 129 246 210 401c-110 -124 -241 -240 -309 -240c-100 0 -122 108 -65 212c41 75 242 452 242 452h159s-143 -265 -186 -347c-15 -27 -44 -90 14 -90s237 192 290 294c2 2 3 4 4 4c44 83 73 139 73 139z" />
    <glyph glyph-name="f.05" horiz-adv-x="349" 
d="M-155 -161c52 99 142 273 207 398h-108c24 46 39 73 39 73l107 1c79 153 170 326 217 413c79 143 138 222 264 222c62 0 154 -45 154 -132v0c0 -114 -158 -160 -360 -280c0 0 -53 -99 -119 -223h155s-15 -28 -39 -74h-155c-100 -187 -212 -396 -222 -414
c-81 -142 -135 -221 -262 -221c-62 0 -154 44 -154 132c0 38 15 73 42 102c-128 -9 -445 -50 -697 -234c-116 81 -495 291 -495 291s1297 29 1438 29v0v0l-41 -83c-78 0 -131 -77 -131 -127c0 -33 19 -43 39 -43c42 0 70 73 121 170zM450 709l-35 -66
c119 85 195 147 195 193c0 33 -19 43 -39 43c-42 0 -69 -73 -121 -170z" />
    <glyph glyph-name="j.05" horiz-adv-x="342" 
d="M-134 -161c109 206 432 825 432 825h158s-400 -754 -450 -841c-82 -141 -135 -221 -262 -221c-62 0 -154 44 -154 132c0 38 15 73 42 102c-128 -9 -445 -50 -697 -234c-116 81 -495 291 -495 291s1297 29 1438 29v0v0l-41 -83c-78 0 -131 -77 -131 -127
c0 -33 19 -43 39 -43c41 0 69 73 121 170zM536 1013c61 0 88 -50 61 -111s-99 -110 -160 -110s-89 49 -61 110c27 61 98 111 160 111z" />
    <glyph glyph-name="z.05" horiz-adv-x="537" 
d="M488 711c136 0 153 -185 11 -373c-59 -77 -131 -134 -199 -172c115 -66 157 -204 69 -345c-91 -147 -247 -219 -399 -219c-62 0 -155 44 -155 132c0 38 15 73 42 102c-128 -9 -445 -50 -697 -234c-116 81 -495 291 -495 291s1297 29 1438 29v0v0l-41 -83
c-78 0 -131 -77 -131 -127c0 -33 22 -43 43 -43c69 0 151 61 220 161c111 160 83 281 -69 281c-47 0 -2 95 16 95c51 0 161 87 226 196c64 108 110 196 59 196c-29 0 -130 -113 -241 -214c-18 -17 -66 24 -41 46l1 1c120 117 235 280 343 280z" />
    <glyph glyph-name="p.01" horiz-adv-x="627" 
d="M557 701c136 0 206 -153 25 -432c-105 -162 -260 -232 -349 -232c-72 0 -108 42 -118 93c-78 -146 -147 -274 -166 -307c-82 -141 -135 -221 -261 -221c-62 0 -154 44 -154 132c0 38 15 73 41 102c-128 -9 -445 -50 -697 -234c-116 81 -495 291 -495 291s1297 29 1438 29
v0v0l-41 -83c-78 0 -131 -77 -131 -127c0 -33 19 -43 39 -43c42 0 70 73 121 170c109 206 432 825 432 825h158s-13 -24 -33 -64c57 56 125 101 191 101zM459 392c64 108 75 196 23 196s-146 -88 -210 -196c-65 -109 -75 -196 -23 -196c51 0 145 87 210 196z" />
    <glyph glyph-name="b.01" horiz-adv-x="661" 
d="M518 768h-26c-33 -61 -72 -133 -112 -208c58 57 127 104 195 104c136 0 206 -154 25 -432c-105 -162 -260 -232 -349 -232c-75 0 -111 45 -118 99c-33 -61 -54 -99 -54 -99h-158s266 496 414 771c-372 7 -1141 26 -1141 26s379 210 495 291c248 -180 559 -223 691 -233
c4 8 9 16 13 24c78 144 132 209 259 209c62 0 154 -44 154 -131c0 -110 -121 -189 -288 -189zM500 550c-51 0 -146 -88 -210 -196s-75 -196 -23 -196c51 0 145 88 210 196c64 108 75 196 23 196zM655 1021c-21 0 -52 -45 -104 -142c-3 -6 -7 -13 -11 -20
c120 20 150 79 150 119c0 33 -15 43 -35 43z" />
    <glyph glyph-name="b.02" horiz-adv-x="661" 
d="M518 768h-31l-112 -213c59 59 130 109 200 109c136 0 206 -154 25 -432c-105 -162 -260 -232 -349 -232c-72 0 -108 42 -118 94l-35 -67h-158s275 519 398 745c-289 8 -788 25 -788 25s66 213 285 164c180 -27 407 -63 559 -87c80 137 133 214 258 214
c62 0 154 -44 154 -131c0 -110 -121 -189 -288 -189zM500 550c-51 0 -146 -88 -210 -196s-75 -196 -23 -196c51 0 145 88 210 196c64 108 75 196 23 196zM651 1021c-41 0 -68 -71 -119 -167c14 -1 23 -2 27 -2c78 0 131 76 131 126c0 33 -19 43 -39 43z" />
    <glyph glyph-name="b.03" horiz-adv-x="661" 
d="M518 768h-31l-112 -213c59 59 130 109 200 109c136 0 206 -154 25 -432c-105 -162 -260 -232 -349 -232c-72 0 -108 42 -118 94l-35 -67h-158s275 519 398 745c-289 8 -788 25 -788 25s169 83 285 164c180 -27 407 -63 559 -87c80 137 133 214 258 214
c62 0 154 -44 154 -131c0 -110 -121 -189 -288 -189zM500 550c-51 0 -146 -88 -210 -196s-75 -196 -23 -196c51 0 145 88 210 196c64 108 75 196 23 196zM651 1021c-41 0 -68 -71 -119 -167c14 -1 23 -2 27 -2c78 0 131 76 131 126c0 33 -19 43 -39 43z" />
    <glyph glyph-name="b.04" horiz-adv-x="661" 
d="M806 957c0 -96 -148 -168 -317 -185l-114 -217c59 59 130 109 200 109c136 0 206 -154 25 -432c-105 -162 -260 -232 -349 -232c-72 0 -108 42 -118 94l-35 -67h-158s273 515 396 742c-348 10 -716 86 -932 248c-84 64 -68 189 48 270c252 -312 616 -427 930 -435
c3 6 6 11 8 15c82 141 135 221 262 221c62 0 154 -44 154 -131zM500 550c-51 0 -146 -88 -210 -196s-75 -196 -23 -196c51 0 145 88 210 196c64 108 75 196 23 196zM651 1021c-40 0 -67 -68 -116 -161c127 22 155 78 155 118c0 33 -19 43 -39 43z" />
    <glyph glyph-name="b.05" horiz-adv-x="661" 
d="M575 664c136 0 206 -154 25 -432c-105 -162 -260 -232 -349 -232c-73 0 -109 43 -118 95c-22 -43 -35 -68 -35 -68h-158s297 563 404 758c-90 28 -142 84 -142 143c0 103 115 152 177 152c119 0 230 -47 150 -227c111 6 451 40 718 235c116 -81 495 -291 495 -291
s-1063 -27 -1256 -29c-32 -59 -71 -135 -114 -216c60 61 132 112 203 112zM318 955c0 -30 14 -68 71 -89c51 99 29 147 -9 147c-21 0 -62 -14 -62 -58zM477 354c64 108 75 196 23 196c-51 0 -146 -88 -210 -196s-75 -196 -23 -196c51 0 145 88 210 196z" />
    <glyph glyph-name="d.05" 
d="M993 621c19 20 21 -67 10 -78c-28 -29 -357 -361 -437 -437c-87 -82 -141 -106 -183 -106c-56 0 -86 34 -60 108c-59 -59 -130 -108 -199 -108c-136 0 -177 160 -35 376s270 288 359 288c56 0 98 -52 110 -110c45 84 90 166 126 231c-90 28 -141 84 -141 143
c0 103 115 152 177 152c119 0 230 -47 150 -227c111 6 451 40 718 235c116 -81 495 -291 495 -291s-1063 -27 -1256 -29c-79 -148 -198 -378 -237 -451c-14 -27 -41 -82 -33 -90c8 -9 32 13 57 35c39 32 342 320 379 359zM659 955c0 -30 14 -68 71 -89c51 100 29 147 -9 147
c-21 0 -62 -14 -62 -58zM235 158c52 0 146 88 211 196c64 108 75 196 23 196s-146 -88 -210 -196c-65 -108 -75 -196 -24 -196z" />
    <glyph glyph-name="d.04" 
d="M828 772c-82 -156 -201 -387 -238 -455c-14 -27 -41 -82 -33 -90c8 -9 32 13 57 35c39 32 342 320 379 359c19 20 21 -67 10 -78c-28 -29 -357 -361 -437 -437c-87 -82 -141 -106 -183 -106c-56 0 -86 34 -60 108c-59 -59 -130 -108 -199 -108c-136 0 -177 160 -35 376
s270 288 359 288c56 0 98 -52 110 -110c41 76 82 151 117 215c-348 10 -715 86 -931 248c-84 64 -68 189 48 270c252 -312 616 -427 929 -435l9 15c82 141 135 221 261 221c63 0 155 -44 155 -131c0 -96 -149 -169 -318 -185zM991 1021c-40 0 -67 -68 -116 -161
c126 22 155 78 155 118c0 33 -19 43 -39 43zM235 158c52 0 146 88 211 196c64 108 75 196 23 196s-146 -88 -210 -196c-65 -108 -75 -196 -24 -196z" />
    <glyph glyph-name="d.03" 
d="M826 768c-82 -155 -200 -383 -236 -451c-14 -27 -41 -82 -33 -90c8 -9 32 13 57 35c39 32 342 320 379 359c19 20 21 -67 10 -78c-28 -29 -357 -361 -437 -437c-87 -82 -141 -106 -183 -106c-56 0 -86 34 -60 108c-59 -59 -130 -108 -199 -108c-136 0 -177 160 -35 376
s270 288 359 288c56 0 98 -52 110 -111c42 78 83 154 119 219c-289 8 -787 25 -787 25s169 83 285 164c10 -1 20 -3 31 -4l529 -81c78 136 133 212 256 212c63 0 155 -44 155 -131c0 -110 -121 -189 -288 -189h-32zM991 1021c-41 0 -68 -71 -119 -165l27 -4
c78 0 131 76 131 126c0 33 -19 43 -39 43zM235 158c52 0 146 88 211 196c64 108 75 196 23 196s-146 -88 -210 -196c-65 -108 -75 -196 -24 -196z" />
    <glyph glyph-name="d.02" 
d="M826 768c-82 -155 -200 -383 -236 -451c-14 -27 -41 -82 -33 -90c8 -9 32 13 57 35c39 32 342 320 379 359c19 20 21 -67 10 -78c-28 -29 -357 -361 -437 -437c-87 -82 -141 -106 -183 -106c-56 0 -86 34 -60 108c-59 -59 -130 -108 -199 -108c-136 0 -177 160 -35 376
s270 288 359 288c57 0 99 -53 110 -112c42 78 84 155 119 220c-289 8 -787 25 -787 25s66 213 285 164c180 -27 407 -63 559 -87c78 138 133 214 257 214c63 0 155 -44 155 -131c0 -110 -121 -189 -288 -189h-32zM991 1021c-41 0 -68 -71 -119 -167c14 -1 23 -2 27 -2
c78 0 131 76 131 126c0 33 -19 43 -39 43zM235 158c52 0 146 88 211 196c64 108 75 196 23 196s-146 -88 -210 -196c-65 -108 -75 -196 -24 -196z" />
    <glyph glyph-name="d.01" 
d="M832 768c-87 -161 -208 -387 -242 -451c-14 -27 -41 -82 -33 -90c8 -9 32 13 57 35c39 32 342 320 379 359c19 20 21 -67 10 -78c-28 -29 -357 -361 -437 -437c-87 -82 -141 -106 -183 -106c-56 0 -86 34 -60 108c-59 -59 -130 -108 -199 -108c-136 0 -177 160 -35 376
s270 288 359 288c56 0 99 -53 110 -112c41 77 82 154 117 219c-372 7 -1141 26 -1141 26s379 210 495 291c248 -180 559 -223 691 -233c4 8 9 16 13 24c77 144 132 209 258 209c63 0 155 -44 155 -131c0 -110 -121 -189 -288 -189h-26zM995 1021c-21 0 -52 -45 -104 -142
c-3 -6 -7 -13 -11 -20c120 20 150 79 150 119c0 33 -15 43 -35 43zM235 158c52 0 146 88 211 196c64 108 75 196 23 196s-146 -88 -210 -196c-65 -108 -75 -196 -24 -196z" />
    <glyph glyph-name="h.01" horiz-adv-x="716" 
d="M1046 621c20 20 21 -67 11 -78c-28 -29 -357 -361 -438 -437c-86 -82 -142 -106 -183 -106c-66 0 -95 48 -39 152c41 75 71 133 116 217c42 77 54 121 20 121c-57 0 -324 -250 -454 -490v0v0h-158s266 496 414 771c-372 7 -1141 26 -1141 26s379 210 495 291
c248 -180 559 -223 691 -233c4 8 9 16 13 24c77 144 132 209 259 209c62 0 154 -44 154 -131c0 -110 -121 -189 -288 -189h-26c-62 -115 -145 -269 -220 -409c201 262 345 305 393 305c77 0 138 -51 70 -178c-26 -47 -48 -88 -91 -169c-15 -27 -41 -82 -33 -90
c8 -9 32 13 57 35c39 32 341 320 378 359zM655 1021c-21 0 -52 -45 -104 -142c-3 -6 -7 -13 -11 -20c120 20 150 79 150 119c0 33 -15 43 -35 43z" />
    <glyph glyph-name="h.02" horiz-adv-x="716" 
d="M1046 621c20 20 21 -67 11 -78c-28 -29 -357 -361 -438 -437c-86 -82 -142 -106 -183 -106c-66 0 -95 48 -39 152c41 75 71 133 116 217c42 77 54 121 20 121c-57 0 -324 -250 -454 -490l1 2l-1 -2h-158s275 519 397 745c-289 8 -787 26 -787 26s66 212 285 164
c180 -28 407 -64 559 -87c80 136 133 213 257 213c62 0 154 -44 154 -131c0 -109 -120 -189 -287 -189c-8 0 -19 1 -31 1l-212 -404c209 281 360 326 409 326c77 0 138 -51 70 -178c-26 -47 -48 -88 -91 -169c-15 -27 -41 -82 -33 -90c8 -9 32 13 57 35
c39 32 341 320 378 359zM632 995c-41 0 -69 -72 -119 -167c14 -2 23 -3 27 -3c78 0 131 77 131 126c0 34 -19 44 -39 44z" />
    <glyph glyph-name="h.03" horiz-adv-x="716" 
d="M1046 621c20 20 21 -67 11 -78c-28 -29 -357 -361 -438 -437c-86 -82 -142 -106 -183 -106c-66 0 -95 48 -39 152c41 75 71 133 116 217c42 77 54 121 20 121c-57 0 -324 -250 -454 -490l1 2l-1 -2h-158s275 519 397 745c-289 8 -787 26 -787 26s169 83 285 164
c180 -28 407 -64 559 -87c80 136 133 213 257 213c62 0 154 -44 154 -131c0 -109 -120 -189 -287 -189c-8 0 -19 1 -31 1l-212 -404c209 281 360 326 409 326c77 0 138 -51 70 -178c-26 -47 -48 -88 -91 -169c-15 -27 -41 -82 -33 -90c8 -9 32 13 57 35
c39 32 341 320 378 359zM632 995c-41 0 -69 -72 -119 -167c14 -2 23 -3 27 -3c78 0 131 77 131 126c0 34 -19 44 -39 44z" />
    <glyph glyph-name="h.04" horiz-adv-x="716" 
d="M1046 621c20 20 21 -67 11 -78c-28 -29 -357 -361 -438 -437c-86 -82 -142 -106 -183 -106c-66 0 -95 48 -39 152c41 75 71 133 116 217c42 77 54 121 20 121c-57 0 -324 -250 -454 -490l1 2l-1 -2h-158s273 515 396 743c-348 9 -716 86 -932 248c-85 63 -68 189 48 270
c252 -312 616 -427 929 -436c4 6 6 11 9 15c82 141 135 221 261 221c62 0 154 -44 154 -131c0 -96 -147 -168 -317 -185l-213 -407c209 281 360 326 409 326c77 0 138 -51 70 -178c-26 -47 -48 -88 -91 -169c-15 -27 -41 -82 -33 -90c8 -9 32 13 57 35
c39 32 341 320 378 359zM632 995c-40 0 -67 -69 -116 -161c126 21 155 78 155 117c0 34 -19 44 -39 44z" />
    <glyph glyph-name="h.05" horiz-adv-x="716" 
d="M1046 621c20 20 21 -67 11 -78c-28 -29 -357 -361 -438 -437c-86 -82 -142 -106 -183 -106c-66 0 -95 48 -39 152c41 75 71 133 116 217c42 77 54 121 20 121c-57 0 -324 -250 -454 -490v0v0h-158s298 563 404 759c-90 27 -141 83 -141 142c0 103 114 152 176 152
c119 0 230 -46 150 -227c111 6 451 41 719 235c116 -81 495 -290 495 -290s-1063 -28 -1257 -30c-55 -104 -138 -263 -213 -406c210 284 362 329 411 329c77 0 138 -51 70 -178c-26 -47 -48 -88 -91 -169c-15 -27 -41 -82 -33 -90c8 -9 32 13 57 35c39 32 341 320 378 359z
M299 928c0 -30 14 -68 71 -88c51 99 29 147 -9 147c-20 0 -62 -15 -62 -59z" />
    <glyph glyph-name="l.01" horiz-adv-x="357" 
d="M518 768c-87 -161 -207 -387 -242 -451c-14 -27 -41 -82 -33 -90c8 -9 32 13 57 35c39 32 342 320 379 359c19 20 21 -67 10 -78c-28 -29 -357 -361 -437 -437c-87 -82 -141 -106 -183 -106c-66 0 -96 48 -39 152c34 63 216 403 331 619c-372 7 -1141 26 -1141 26
s379 210 495 291c248 -180 559 -223 691 -233c5 8 9 16 13 24c77 144 132 209 259 209c62 0 154 -44 154 -131c0 -110 -121 -189 -288 -189h-26zM681 1021c-21 0 -52 -45 -104 -142c-3 -6 -7 -13 -11 -20c120 20 150 79 150 119c0 33 -15 43 -35 43z" />
    <glyph glyph-name="l.02" horiz-adv-x="357" 
d="M512 768c-82 -155 -199 -383 -236 -451c-14 -27 -41 -82 -33 -90c8 -9 32 13 57 35c39 32 342 320 379 359c19 20 21 -67 10 -78c-28 -29 -357 -361 -437 -437c-87 -82 -141 -106 -183 -106c-66 0 -96 48 -39 152c35 64 218 409 334 620c-289 8 -788 25 -788 25
s66 213 285 164c180 -27 407 -63 559 -87c78 138 133 214 258 214c62 0 154 -44 154 -131c0 -110 -121 -189 -288 -189h-32zM677 1021c-41 0 -68 -71 -119 -167c14 -1 23 -2 27 -2c78 0 131 76 131 126c0 33 -19 43 -39 43z" />
    <glyph glyph-name="l.03" horiz-adv-x="357" 
d="M512 768c-82 -155 -199 -383 -236 -451c-14 -27 -41 -82 -33 -90c8 -9 32 13 57 35c39 32 342 320 379 359c19 20 21 -67 10 -78c-28 -29 -357 -361 -437 -437c-87 -82 -141 -106 -183 -106c-66 0 -96 48 -39 152c35 64 217 409 333 620c-289 8 -787 25 -787 25
s169 83 285 164c180 -27 407 -63 559 -87c79 137 133 214 258 214c62 0 154 -44 154 -131c0 -110 -121 -189 -288 -189h-32zM677 1021c-41 0 -68 -71 -119 -167c14 -1 23 -2 27 -2c78 0 131 76 131 126c0 33 -19 43 -39 43z" />
    <glyph glyph-name="l.04" horiz-adv-x="357" 
d="M514 772c-82 -156 -201 -387 -238 -455c-14 -27 -41 -82 -33 -90c8 -9 32 13 57 35c39 32 342 320 379 359c19 20 21 -67 10 -78c-28 -29 -357 -361 -437 -437c-87 -82 -141 -106 -183 -106c-66 0 -96 48 -39 152c35 64 214 406 331 617c-347 10 -715 86 -931 248
c-84 64 -68 189 48 270c252 -312 616 -427 930 -435c2 5 5 10 8 15c82 141 135 221 262 221c62 0 154 -44 154 -131c0 -96 -148 -169 -318 -185zM677 1021c-40 0 -67 -68 -116 -161c127 22 155 78 155 118c0 33 -19 43 -39 43z" />
    <glyph glyph-name="l.05" horiz-adv-x="357" 
d="M679 621c19 20 21 -67 11 -78c-28 -29 -358 -361 -438 -437c-87 -82 -141 -106 -183 -106c-66 0 -96 48 -39 152c37 68 228 433 341 633c-90 28 -141 84 -141 143c0 103 114 152 176 152c119 0 230 -47 150 -227c111 6 451 40 719 235c116 -81 495 -291 495 -291
s-1063 -27 -1257 -29c-78 -148 -197 -378 -236 -451c-15 -27 -42 -82 -34 -90c8 -9 32 13 58 35c38 32 341 320 378 359zM345 955c0 -30 14 -68 71 -89c51 100 30 147 -9 147c-20 0 -62 -14 -62 -58z" />
    <glyph glyph-name="t.01" horiz-adv-x="402" 
d="M545 768h-27c-22 -41 -46 -87 -71 -133l120 1s-10 -19 -27 -51h-120c-62 -116 -121 -226 -143 -268c-15 -27 -42 -82 -34 -90c8 -9 32 13 58 35c38 32 391 320 428 359c19 20 21 -67 11 -78c-28 -29 -408 -361 -488 -437c-87 -82 -141 -106 -183 -106
c-66 0 -96 48 -39 152c25 47 132 245 232 433h-115c17 32 27 50 27 50h115c25 48 50 94 72 136c-371 7 -1140 26 -1140 26s379 210 495 291c248 -180 558 -223 690 -233c5 8 9 16 13 24c78 144 132 209 259 209c62 0 154 -44 154 -131c0 -110 -120 -189 -287 -189zM681 1021
c-21 0 -51 -45 -103 -142c-4 -6 -7 -13 -11 -20c120 20 149 79 149 119c0 33 -15 43 -35 43z" />
    <glyph glyph-name="t.02" horiz-adv-x="402" 
d="M545 768h-33c-21 -40 -45 -86 -69 -133l124 1s-10 -19 -27 -51h-123c-60 -114 -117 -224 -140 -268c-15 -27 -42 -82 -34 -90c8 -9 32 13 58 35c38 32 391 320 428 359c19 20 21 -67 11 -78c-28 -29 -408 -361 -488 -437c-87 -82 -141 -106 -183 -106
c-66 0 -96 48 -39 152c26 47 132 247 232 433h-115c17 32 27 50 27 50h116c26 49 51 95 74 137c-289 8 -788 25 -788 25s66 213 285 164c180 -27 408 -63 559 -87c78 138 133 214 258 214c62 0 154 -44 154 -131c0 -110 -120 -189 -287 -189zM677 1021
c-41 0 -68 -71 -119 -167c14 -1 23 -2 28 -2c78 0 130 76 130 126c0 33 -18 43 -39 43z" />
    <glyph glyph-name="t.03" horiz-adv-x="402" 
d="M545 768h-33c-21 -40 -45 -86 -69 -133l124 1s-10 -19 -27 -51h-123c-60 -114 -117 -224 -140 -268c-15 -27 -42 -82 -34 -90c8 -9 32 13 58 35c38 32 391 320 428 359c19 20 21 -67 11 -78c-28 -29 -408 -361 -488 -437c-87 -82 -141 -106 -183 -106
c-66 0 -96 48 -39 152c26 47 131 247 231 433h-114c17 32 27 50 27 50h115c26 49 51 95 74 137c-289 8 -787 25 -787 25s169 83 285 164c181 -27 408 -63 560 -87c78 137 133 214 257 214c62 0 154 -44 154 -131c0 -110 -120 -189 -287 -189zM677 1021
c-41 0 -68 -71 -119 -167c14 -1 23 -2 28 -2c78 0 130 76 130 126c0 33 -18 43 -39 43z" />
    <glyph glyph-name="t.04" horiz-adv-x="402" 
d="M832 957c0 -96 -148 -169 -318 -185c-22 -42 -46 -89 -71 -137l124 1s-10 -19 -27 -51h-123c-60 -114 -117 -224 -140 -268c-15 -27 -42 -82 -34 -90c8 -9 32 13 58 35c38 32 391 320 428 359c19 20 21 -67 11 -78c-28 -29 -408 -361 -488 -437
c-87 -82 -141 -106 -183 -106c-66 0 -96 48 -39 152c26 47 131 247 231 433h-114c17 32 27 50 27 50h114c26 48 51 93 73 134c-347 10 -715 86 -931 248c-84 64 -67 189 48 270c253 -312 617 -427 930 -435c3 5 5 10 8 15c82 141 135 221 262 221c62 0 154 -44 154 -131z
M677 1021c-40 0 -67 -68 -116 -161c127 22 155 78 155 118c0 33 -18 43 -39 43z" />
    <glyph glyph-name="t.05" horiz-adv-x="403" 
d="M729 621c19 20 21 -67 11 -78c-28 -29 -408 -361 -488 -437c-87 -82 -141 -106 -183 -106c-66 0 -96 48 -39 152c27 49 132 249 231 433h-114c17 32 27 50 27 50h114c30 55 58 107 83 150c-90 28 -141 84 -141 143c0 103 114 152 176 152c119 0 230 -47 150 -227
c111 6 451 40 719 235c116 -81 495 -291 495 -291s-1063 -27 -1257 -29c-21 -40 -45 -85 -70 -133l124 1s-10 -19 -27 -51h-123c-59 -112 -116 -221 -140 -268c-15 -27 -42 -82 -34 -90c8 -9 32 13 58 35c38 32 391 320 428 359zM345 955c0 -30 14 -68 71 -89
c51 100 30 147 -9 147c-20 0 -62 -14 -62 -58z" />
    <glyph glyph-name="r.01" horiz-adv-x="473" 
d="M804 621c19 20 21 -67 10 -78c-28 -29 -357 -361 -437 -437c-87 -82 -142 -106 -183 -106c-66 0 -96 48 -39 152c41 75 96 184 145 266c38 64 13 84 -12 95c-89 -90 -386 -342 -454 -407l-21 113c28 23 315 227 418 327c-45 40 -83 111 -25 184c58 72 145 58 194 26
c53 -34 6 -101 -54 -166c5 -7 12 -13 21 -18c77 -44 176 7 109 -121c-25 -48 -31 -53 -75 -134c-14 -27 -41 -82 -33 -90c8 -9 32 13 57 35c39 32 342 320 379 359z" />
    <glyph glyph-name="r.02" horiz-adv-x="473" 
d="M803 621c19 20 21 -67 11 -78c-28 -29 -358 -361 -438 -437c-87 -82 -142 -106 -183 -106c-66 0 -96 48 -39 152c41 75 96 184 145 266c37 62 14 83 -10 94c-67 -79 -230 -282 -328 -467c5 110 -33 217 -33 217c28 23 199 184 302 284c-45 40 -83 111 -25 184
c58 72 146 58 195 26c52 -34 5 -101 -55 -166c6 -7 13 -13 22 -18c77 -44 175 7 108 -121c-25 -48 -31 -53 -74 -134c-15 -27 -42 -82 -34 -90c8 -9 32 13 58 35c38 32 341 320 378 359z" />
    <glyph glyph-name="r.03" horiz-adv-x="473" 
d="M803 621c20 20 21 -67 11 -78c-28 -29 -357 -361 -438 -437c-86 -82 -142 -106 -183 -106c-66 0 -96 48 -39 152c41 75 96 184 145 266c22 36 23 58 16 73c-79 -142 -394 -669 -847 -945c4 110 -33 216 -33 216c421 180 698 588 814 770c-52 35 -109 115 -43 198
c58 72 145 58 194 26c53 -34 5 -101 -55 -166c6 -7 13 -13 22 -18c77 -44 176 7 109 -121c-25 -48 -32 -53 -75 -134c-15 -27 -42 -82 -33 -90c8 -9 31 13 57 35c39 32 341 320 378 359z" />
    <glyph glyph-name="s.01" horiz-adv-x="427" 
d="M769 621c24 20 17 -55 9 -68c-90 -135 -287 -282 -417 -345c-68 -175 -170 -208 -272 -208c-62 0 -150 20 -134 107c12 69 130 92 258 126c10 30 18 66 27 113c8 47 15 97 25 145c-109 -104 -429 -325 -492 -385l40 113c24 20 335 254 487 383c28 60 74 103 153 108
c175 12 -9 -145 -9 -145l-40 -200c-4 -25 -10 -49 -16 -71c105 47 235 137 381 327zM134 91c12 16 25 30 38 50c-58 -18 -102 -34 -106 -55c-7 -37 43 -29 68 5z" />
    <glyph glyph-name="a.01" 
d="M771 664c0 0 -141 -266 -186 -347c-63 -115 -149 -317 -55 -356c-117 -126 -270 -20 -211 148c-59 -60 -130 -109 -200 -109c-136 0 -177 160 -35 376s270 288 359 288c57 0 99 -53 110 -112c35 65 60 111 60 111zM231 158c51 0 145 88 210 196c64 108 75 196 23 196
s-146 -88 -210 -196c-65 -108 -75 -196 -23 -196z" />
    <glyph glyph-name="a.02" 
d="M1313 320c116 -81 580 -76 580 -76s-1855 -777 -1573 -139c-58 -58 -128 -105 -196 -105c-136 0 -177 160 -35 376s270 287 359 287c57 0 99 -52 111 -111c34 65 59 111 59 111h159s-143 -265 -186 -346c-423 -800 490 -166 722 3zM259 354c-64 -108 -75 -196 -23 -196
s146 88 210 196c65 108 75 196 23 196c-51 0 -145 -88 -210 -196z" />
    <glyph glyph-name="a.03" 
d="M1237 -142c317 -152 93 -438 -30 -438c93 165 -32 393 -484 365c-313 -19 -513 78 -408 320c-58 -58 -128 -105 -196 -105c-136 0 -177 160 -35 376s270 288 359 288c57 0 99 -53 110 -112c35 65 60 111 60 111l158 1s-204 -382 -248 -463c-63 -115 -150 -258 -36 -301
c142 -54 509 73 750 -42zM254 354c-65 -108 -75 -196 -23 -196c51 0 145 88 210 196c64 108 75 196 23 196s-146 -88 -210 -196z" />
    <glyph glyph-name="d.06" 
d="M1241 -142c317 -152 93 -438 -30 -438c93 165 -32 393 -484 365c-313 -19 -513 78 -408 319c-58 -57 -128 -104 -195 -104c-136 0 -177 160 -35 376s270 288 358 288c57 0 99 -52 111 -111c114 214 230 433 230 433h158s-375 -704 -419 -785c-63 -115 -150 -258 -36 -301
c142 -54 509 73 750 -42zM258 354c-64 -108 -74 -196 -23 -196c52 0 146 88 210 196c65 108 75 196 24 196c-52 0 -146 -88 -211 -196z" />
    <glyph glyph-name="h.06" horiz-adv-x="716" 
d="M1294 -142c317 -152 93 -438 -30 -438c93 165 -32 393 -484 365c-333 -21 -532 88 -384 367c29 55 85 162 117 217c45 75 54 121 20 121c-57 0 -324 -250 -454 -490h-158l529 986h158l-336 -627c200 262 345 305 393 305c77 0 138 -51 70 -178
c-26 -47 -115 -206 -158 -287c-63 -115 -147 -256 -33 -299c143 -54 509 73 750 -42z" />
    <glyph glyph-name="i.01" horiz-adv-x="349" 
d="M33 152c41 75 274 511 274 511l158 1s-141 -266 -186 -347c-63 -115 -149 -317 -55 -356c-127 -137 -296 0 -191 191zM537 1013c62 0 89 -50 62 -111s-99 -110 -160 -110s-89 49 -62 110c28 61 99 111 160 111z" />
    <glyph glyph-name="k.01" horiz-adv-x="716" 
d="M397 152c41 75 107 195 16 195c-58 0 -204 -107 -334 -347h-158l529 986h158l-270 -503l259 180l208 1l-300 -190h16c95 0 160 -101 89 -247c-51 -106 -92 -237 -21 -266c-127 -137 -296 0 -192 191z" />
    <glyph glyph-name="m.01" horiz-adv-x="1111" 
d="M1060 664c77 0 139 -44 63 -189c-25 -47 -55 -106 -95 -188c-43 -89 -139 -287 -45 -326c-127 -137 -296 0 -191 191c41 75 71 133 116 217c42 77 54 121 20 121c-54 0 -293 -221 -429 -447c-14 -26 -23 -43 -23 -43h-158s147 277 196 370c41 77 54 120 20 120
c-58 0 -325 -250 -455 -490h-158l356 663h158l-163 -305c201 263 346 306 393 306c78 0 143 -50 63 -189c-21 -38 -35 -65 -62 -117c201 263 346 306 394 306z" />
    <glyph glyph-name="n.01" horiz-adv-x="716" 
d="M664 664c77 0 139 -44 63 -189c-25 -47 -55 -106 -95 -188c-43 -89 -139 -287 -45 -326c-127 -137 -296 0 -191 191c41 75 71 133 116 217c42 77 54 121 20 121c-51 0 -274 -205 -413 -416l-40 -74h-158l356 663h158l-160 -299c198 258 341 300 389 300z" />
    <glyph glyph-name="o.01" horiz-adv-x="587" 
d="M1014 476c98 -34 147 -143 54 -199c-72 -43 -360 -90 -531 15c-10 -17 -20 -34 -31 -51c-109 -163 -227 -241 -337 -241c-136 0 -207 154 -75 376s270 288 359 288c18 0 24 -21 26 -45c23 25 50 40 76 40c55 0 68 -84 57 -153c-4 -28 -10 -62 -24 -101l-19 -43
c173 -101 448 19 445 114zM241 158c68 0 149 112 201 209c-33 52 -32 115 -13 168c-51 -30 -117 -99 -165 -181c-64 -108 -75 -196 -23 -196z" />
    <glyph glyph-name="u.01" horiz-adv-x="670" 
d="M787 664c0 0 -141 -266 -186 -347c-63 -115 -149 -317 -55 -356c-127 -137 -296 0 -192 191c8 15 24 43 43 79c-109 -120 -235 -231 -302 -231c-100 0 -121 107 -64 212c41 75 242 451 242 451l159 1s-143 -266 -186 -347c-15 -27 -45 -90 13 -90s237 192 291 293
c1 3 3 5 4 5c43 79 75 138 75 138z" />
    <glyph glyph-name="u.02" horiz-adv-x="670" 
d="M1252 -142c318 -152 93 -438 -30 -438c93 165 -31 393 -483 365c-333 -21 -539 91 -385 367c9 15 24 43 44 80c-109 -121 -236 -232 -303 -232c-100 0 -121 107 -64 212c41 75 242 451 242 451l159 1s-143 -266 -186 -347c-15 -27 -45 -90 13 -90s237 192 291 293
c2 4 3 5 5 5c42 79 74 138 74 138l158 1s-204 -382 -248 -463c-64 -115 -150 -258 -36 -301c142 -54 508 73 749 -42z" />
    <glyph glyph-name="u.03" horiz-adv-x="670" 
d="M1314 320c116 -81 495 -291 495 -291s-1261 -29 -1402 -29c-66 0 -120 48 -63 152c6 11 16 29 29 52c-103 -109 -216 -204 -278 -204c-100 0 -121 107 -64 212c41 75 242 451 242 451l159 1s-143 -266 -186 -347c-15 -27 -45 -90 13 -90c47 0 171 123 246 224
c60 112 114 212 114 212l158 1s-143 -265 -186 -347c-66 -125 -96 -234 -30 -234c33 0 442 11 753 237z" />
    <glyph glyph-name="v.01" horiz-adv-x="550" 
d="M1008 476c97 -34 146 -143 53 -199c-75 -45 -389 -94 -555 31c-163 -240 -253 -308 -336 -308c-114 0 -148 99 -103 214c52 134 181 449 181 449l158 1s-93 -240 -148 -379c-19 -48 -16 -92 29 -92c57 0 112 77 169 180c-32 106 76 293 158 293c29 0 79 -42 35 -123
c-18 -32 -74 -127 -74 -127l-28 -44c171 -118 463 6 461 104z" />
    <glyph glyph-name="w.01" horiz-adv-x="908" 
d="M1372 476c98 -34 147 -143 53 -199c-75 -45 -394 -95 -559 34c-164 -242 -254 -311 -339 -311c-114 0 -147 99 -102 214c10 25 22 55 35 89c-118 -144 -284 -303 -364 -303c-100 0 -121 107 -64 212c41 75 242 451 242 451l159 1s-168 -306 -211 -387
c-15 -28 -44 -91 14 -91c54 0 237 205 304 315c36 90 66 162 66 162l158 1s-103 -244 -158 -383c-19 -48 -16 -92 29 -92c57 0 122 81 179 184c-32 106 76 293 157 293c30 0 80 -42 36 -123c-18 -32 -74 -127 -74 -127l-26 -41c171 -123 468 2 465 101z" />
    <glyph glyph-name="s.02" horiz-adv-x="427" 
d="M711 547c101 16 196 -57 139 -150c-40 -68 -228 -144 -498 -210c-68 -157 -165 -187 -263 -187c-62 0 -150 20 -134 107c12 69 130 92 258 126c10 30 18 66 27 113c28 157 38 352 213 364s-9 -145 -9 -145l-40 -200c-4 -25 -10 -49 -16 -71l-7 -22
c239 74 372 200 330 275zM134 91c12 16 25 30 38 50c-58 -18 -102 -34 -106 -55c-7 -37 43 -29 68 5z" />
    <glyph glyph-name="s.03" horiz-adv-x="427" 
d="M711 547c101 16 196 -57 139 -150c-40 -68 -228 -144 -498 -210c-68 -157 -165 -187 -263 -187c-62 0 -150 20 -134 107c12 69 130 92 258 126c10 30 18 66 27 113c8 47 15 97 25 145c-109 -104 -368 -325 -431 -385l-21 113c24 20 335 254 487 383c1 2 2 3 2 5
c28 56 72 96 146 103h5c175 12 -9 -145 -9 -145l-40 -200c-5 -25 -10 -49 -23 -93c239 74 372 200 330 275zM134 91c12 16 25 30 38 50c-58 -18 -102 -34 -106 -55c-7 -37 43 -29 68 5z" />
    <glyph glyph-name="d.07" 
d="M1313 320c116 -81 580 -76 580 -76s-1855 -777 -1573 -139c-58 -58 -128 -105 -196 -105c-136 0 -177 160 -35 376s270 287 359 287c57 0 99 -51 110 -110c114 214 231 433 231 433h158s-313 -588 -356 -669c-423 -800 490 -166 722 3zM259 354
c-64 -108 -75 -196 -23 -196s146 88 210 196c65 108 75 196 23 196c-51 0 -145 -88 -210 -196z" />
    <glyph glyph-name="c.01" horiz-adv-x="562" 
d="M252 0c-226 0 -296 189 -159 408c112 178 249 256 338 256c144 0 229 -133 91 -317c-51 -67 -137 32 -137 32c64 54 119 171 67 171s-146 -87 -210 -196c-82 -138 -59 -287 59 -286c185 3 596 292 741 397c116 -81 580 -76 580 -76s-903 -389 -1370 -389z" />
    <glyph glyph-name="e.01" horiz-adv-x="553" 
d="M1042 465c116 -81 580 -76 580 -76s-901 -389 -1368 -389c-245 0 -293 189 -156 408c112 178 249 256 337 256c145 0 235 -138 92 -317c-86 -107 -185 -154 -272 -127c-22 6 -39 17 -53 30c-17 -80 16 -182 102 -182c184 2 593 292 738 397zM246 354c-2 -5 -5 -9 -8 -14
c49 -38 105 0 152 39c64 54 118 171 67 171c-52 0 -146 -87 -211 -196z" />
    <glyph glyph-name="A" unicode="A" horiz-adv-x="1054" 
d="M1384 621c20 20 21 -67 11 -78c-28 -29 -357 -361 -438 -437c-86 -82 -140 -106 -183 -106c-66 0 -96 48 -39 152c13 24 62 115 123 229h-146c-53 -58 -97 -108 -125 -140c-121 -141 -220 -240 -368 -240c-250 0 -110 452 460 463c215 223 502 522 502 522h158
s-314 -588 -357 -669c-15 -27 -42 -82 -33 -90c8 -9 31 13 57 35c39 32 341 320 378 359zM464 243c25 26 73 75 133 137c-302 -20 -458 -269 -360 -269c45 0 109 14 227 132zM787 465c44 0 86 1 117 2c55 103 115 215 164 308c-74 -81 -183 -201 -281 -310z" />
    <glyph glyph-name="at" unicode="@" horiz-adv-x="1448" 
d="M929 0c-135 0 -157 60 -141 129c-62 -68 -142 -129 -219 -129c-136 0 -177 160 -35 376s270 287 358 287c58 0 100 -52 111 -112c34 64 60 112 60 112h158s-145 -264 -186 -346c-30 -60 -48 -163 6 -163c112 0 354 293 354 565s-208 258 -322 258
c-317 0 -845 -349 -845 -834c0 -256 205 -358 355 -358c247 0 394 114 443 147s69 -101 69 -101c-70 -38 -219 -140 -516 -140c-316 0 -498 193 -498 446c0 512 499 915 995 915c247 0 413 -123 413 -369c0 -364 -357 -683 -560 -683zM680 158c52 0 146 88 210 196
c65 108 75 196 24 196c-52 0 -146 -88 -210 -196c-65 -108 -75 -196 -24 -196z" />
    <glyph glyph-name="colon" unicode=":" horiz-adv-x="667" 
d="M578 538c-24 -69 -92 -124 -151 -124s-88 55 -63 124c24 68 91 124 150 124s88 -56 64 -124zM412 215c-24 -68 -92 -124 -151 -124s-87 56 -63 124c24 69 91 124 151 124c59 0 87 -55 63 -124z" />
    <glyph glyph-name="semicolon" unicode=";" horiz-adv-x="745" 
d="M656 538c-24 -69 -92 -124 -151 -124s-88 55 -63 124c24 68 91 124 150 124s88 -56 64 -124zM499 264c0 -4 -1 -8 -1 -12c-10 -169 -191 -308 -309 -308v72c62 0 110 33 138 76c-51 7 -73 60 -51 123c24 69 91 124 151 124c43 0 70 -30 71 -73h1v-2z" />
    <glyph glyph-name="period" unicode="." horiz-adv-x="316" 
d="M301 117c-24 -69 -92 -124 -151 -124s-87 55 -63 124c24 68 91 124 151 124c59 0 87 -56 63 -124z" />
    <glyph glyph-name="comma" unicode="," horiz-adv-x="316" 
d="M310 166c0 -4 -1 -9 -1 -13c-10 -169 -191 -307 -309 -307v72c62 0 110 32 138 76c-51 7 -73 59 -51 123c24 68 91 124 151 124c43 0 70 -30 71 -74l1 1v-2z" />
    <glyph glyph-name="quotedbl" unicode="&#x22;" horiz-adv-x="867" 
d="M603 911c0 -4 -1 -8 -1 -13c-10 -168 -191 -307 -309 -307v72c62 0 110 33 138 76c-51 7 -73 60 -51 123c24 69 91 124 151 124c43 0 70 -30 71 -73h1v-2zM863 911c0 -4 -1 -8 -1 -13c-10 -168 -191 -307 -309 -307v72c62 0 110 33 138 76c-51 7 -73 60 -51 123
c24 69 91 124 151 124c43 0 70 -30 71 -73h1v-2z" />
    <glyph glyph-name="quotesingle" unicode="'" horiz-adv-x="607" 
d="M603 911c0 -4 -1 -8 -1 -13c-10 -168 -191 -307 -309 -307v72c62 0 110 33 138 76c-51 7 -73 60 -51 123c24 69 91 124 151 124c43 0 70 -30 71 -73h1v-2z" />
    <glyph glyph-name="less" unicode="&#x3c;" horiz-adv-x="806" 
d="M460 288l-51 -95l-214 150h-1v0v1h1l55 129l407 183l-74 -137l-267 -121z" />
    <glyph glyph-name="equal" unicode="=" horiz-adv-x="1016" 
d="M194 238l56 103h523l-56 -103h-523zM344 525h523l-56 -103h-523z" />
    <glyph glyph-name="greater" unicode="&#x3e;" horiz-adv-x="806" 
d="M390 561l51 95l215 -150h1h-1l1 -1h-1l-55 -129l-407 -183l73 137l267 121z" />
    <glyph glyph-name="bracketleft" unicode="[" horiz-adv-x="678" 
d="M755 867h-180l-401 -748h190l-64 -119h-158v0h-142l529 986h142v0h148z" />
    <glyph glyph-name="bracketright" unicode="]" horiz-adv-x="975" 
d="M206 119h180l401 748l-190 -1l64 119l158 1v0h142l-529 -986h-142v0h-148z" />
    <glyph glyph-name="parenleft" unicode="(" horiz-adv-x="500" 
d="M156 0c-117 0 -255 81 -54 493c202 411 420 493 537 493l-41 -85c-94 0 -212 -67 -379 -408s-115 -408 -21 -408z" />
    <glyph glyph-name="parenright" unicode=")" horiz-adv-x="941" 
d="M674 986c117 0 256 -82 54 -493c-202 -412 -420 -493 -537 -493l42 85c94 0 212 67 379 408s114 408 20 408z" />
    <glyph glyph-name="braceleft" unicode="{" horiz-adv-x="486" 
d="M144 0c-109 0 -222 104 -71 450c11 24 -19 76 -19 76s77 45 88 65c189 355 375 395 485 395l-41 -85c-86 0 -173 -23 -317 -289c-36 -64 -74 -86 -74 -86s9 -41 -8 -81c-120 -271 -87 -360 -1 -360z" />
    <glyph glyph-name="braceright" unicode="}" horiz-adv-x="784" 
d="M625 986c110 0 222 -105 71 -450c-10 -24 20 -76 20 -76s-77 -45 -89 -66c-189 -355 -374 -394 -485 -394l42 85c85 0 172 22 316 289c36 63 74 86 74 86s-9 40 8 81c120 270 87 360 1 360z" />
    <glyph glyph-name="plus" unicode="+" horiz-adv-x="828" 
d="M784 441l-63 -119h-253l-115 -215h-135l115 215h-235l64 119h235l116 215h135l-116 -215h252z" />
    <glyph glyph-name="hyphen" unicode="-" horiz-adv-x="828" 
d="M721 322h-623l64 119h622z" />
    <glyph glyph-name="underscore" unicode="_" horiz-adv-x="1200" 
d="M1090 -78l-1090 -1l44 80h1090z" />
    <glyph glyph-name="asterisk" unicode="*" horiz-adv-x="493" 
d="M619 764c-16 -6 -36 -4 -44 6s-24 -2 -36 -27s-33 -36 -46 -24c-14 11 -21 28 -17 37c5 9 -10 12 -32 7c-23 -4 -40 6 -39 24c1 17 10 34 20 36s4 16 -14 31c-18 16 -20 36 -5 46c14 10 34 11 44 3c9 -8 23 7 30 34s25 42 40 33s25 -26 22 -38s17 -18 44 -12
c27 5 49 -4 47 -22c-1 -18 -12 -34 -24 -37c-12 -2 -8 -22 9 -44s17 -46 1 -53z" />
    <glyph glyph-name="asciicircum" unicode="^" horiz-adv-x="675" 
d="M572 808c8 5 173 -295 173 -295s-88 -80 -131 -49c-34 25 -52 110 -100 161c-90 -50 -229 -150 -275 -171c-70 -32 -89 59 -89 59z" />
    <glyph glyph-name="numbersign" unicode="#" horiz-adv-x="765" 
d="M717 422h-131l-44 -81h136l-55 -103h-136l-70 -131h-120l71 131h-117l-70 -131h-120l71 131h-132l56 103h131l43 81h-136l56 103h136l70 131h119l-70 -131h117l70 131h119l-70 -131h131zM423 341l43 81h-117l-43 -81h117z" />
    <glyph glyph-name="bar" unicode="|" horiz-adv-x="800" 
d="M350 -154v1140h74v-1140h-74z" />
    <glyph glyph-name="slash" unicode="/" horiz-adv-x="704" 
d="M119 -154h-119l885 1140h119z" />
    <glyph glyph-name="backslash" unicode="\" horiz-adv-x="1388" 
d="M1110 -154l-885 1140h119l885 -1140h-119z" />
    <glyph glyph-name="exclam" unicode="!" horiz-adv-x="503" 
d="M314 117c24 68 -5 124 -64 124s-126 -56 -150 -124c-25 -69 4 -124 63 -124s127 55 151 124zM251 351l331 635h158l-347 -635h-142z" />
    <glyph glyph-name="question" unicode="?" horiz-adv-x="620" 
d="M314 117c24 68 -5 124 -64 124s-126 -56 -150 -124c-25 -69 4 -124 63 -124s127 55 151 124zM356 353l-154 3c0 184 474 277 474 451c0 34 -29 64 -84 64c-127 0 -181 -152 -181 -230h-132c0 152 150 345 341 345c114 0 228 -63 228 -165c0 -309 -492 -359 -492 -468z
" />
    <glyph glyph-name="asciitilde" unicode="~" horiz-adv-x="699" 
d="M646 432c21 9 8 -65 -102 -101c-109 -36 -300 101 -439 3c-20 -14 8 56 45 84c126 94 404 -24 496 14z" />
    <glyph glyph-name="dieresis" unicode="&#xa8;" horiz-adv-x="729" 
d="M512 867c-24 -68 -92 -124 -151 -124s-88 56 -63 124c24 69 91 124 150 124s88 -55 64 -124zM820 867c-24 -68 -92 -124 -151 -124s-88 56 -63 124c24 69 91 124 150 124s88 -55 64 -124z" />
    <glyph glyph-name="circumflex" unicode="&#x2c6;" horiz-adv-x="569" 
d="M558 985c5 3 111 -190 111 -190s-71 -62 -98 -42c-22 16 -47 43 -79 76c-57 -32 -112 -62 -142 -76c-45 -20 -62 42 -62 42z" />
    <glyph glyph-name="caron" unicode="&#x2c7;" horiz-adv-x="569" 
d="M398 749c-4 -3 -110 190 -110 190s71 62 98 42c22 -16 47 -43 79 -76c57 32 112 62 142 76c45 20 62 -42 62 -42z" />
    <glyph glyph-name="breve" unicode="&#x2d8;" horiz-adv-x="616" 
d="M600 985h116c-63 -110 -177 -191 -279 -191c-103 0 -160 81 -146 191h103c3 -47 34 -79 82 -79s87 32 124 79z" />
    <glyph glyph-name="grave" unicode="`" horiz-adv-x="833" 
d="M260 753c-36 20 -186 124 -248 168c-63 44 142 69 142 69l186 -195s-44 -62 -80 -42z" />
    <glyph glyph-name="acute" unicode="&#xb4;" horiz-adv-x="529" 
d="M368 753c-36 -20 -80 42 -80 42l186 195s205 -25 142 -69c-62 -44 -212 -148 -248 -168z" />
    <glyph glyph-name="tilde" unicode="&#x2dc;" horiz-adv-x="667" 
d="M758 967c21 8 8 -66 -102 -101c-109 -36 -222 101 -361 3c-20 -14 8 55 45 83c126 94 326 -23 418 15z" />
    <glyph glyph-name="three" unicode="3" horiz-adv-x="728" 
d="M712 499c0 -121 -89 -198 -187 -239c27 -24 45 -63 45 -127c0 -138 -133 -336 -395 -336c-352 0 -241 241 -179 303h147c-49 -49 -136 -245 38 -245c114 0 221 161 221 276c0 109 -109 89 -118 89l50 75c94 0 230 139 230 242c0 51 -36 64 -72 64
c-99 0 -167 -134 -167 -190h-137h-8c0 46 88 253 324 253c87 0 208 -35 208 -165z" />
    <glyph glyph-name="four" unicode="4" horiz-adv-x="694" 
d="M747 664l-316 -589h100l-40 -74l-100 -1l-109 -203h-159l110 203h-263l-36 74v0v0s560 475 655 590h158zM74 75h199l190 354c-131 -124 -293 -269 -389 -354z" />
    <glyph glyph-name="five" unicode="5" horiz-adv-x="640" 
d="M659 547l-234 -1l-135 -248c109 -1 272 -15 272 -166c0 -138 -133 -336 -395 -336c-352 0 -241 240 -179 303h147c-49 -49 -136 -245 38 -245c114 0 221 161 221 276c0 72 -87 89 -148 93h-155l239 441h158v-1l234 1z" />
    <glyph glyph-name="six" unicode="6" horiz-adv-x="694" 
d="M754 605h-151s103 159 -8 159c-95 0 -221 -135 -321 -301c0 0 80 89 183 89c116 0 204 -70 187 -193c-25 -175 -195 -359 -402 -359c-113 0 -235 49 -208 237c37 263 294 589 569 589s151 -221 151 -221zM401 462c-69 0 -161 -82 -206 -182c-44 -101 -25 -183 45 -183
c69 0 161 82 206 183c44 100 25 182 -45 182z" />
    <glyph glyph-name="seven" unicode="7" horiz-adv-x="567" 
d="M561 664h190c-305 -306 -647 -867 -647 -867h-158s270 460 510 750l-308 -1l60 117l353 1v0z" />
    <glyph glyph-name="two" unicode="2" horiz-adv-x="684" 
d="M688 499c0 -177 -314 -351 -467 -424h339l-40 -74l-552 -1l40 74s532 309 532 463c0 51 -36 64 -72 64c-99 0 -167 -134 -167 -190h-137h-8c0 46 88 253 324 253c87 0 208 -35 208 -165z" />
    <glyph glyph-name="one" unicode="1" horiz-adv-x="454" 
d="M560 664l-316 -589h114l-40 -74l-114 -1v0h-158v0h-125l40 74l125 1l214 399c-72 -47 -127 -63 -127 -63l-56 74s189 64 285 179h158z" />
    <glyph glyph-name="zero" unicode="0" horiz-adv-x="638" 
d="M488 681c161 0 225 -153 142 -341c-83 -187 -280 -340 -442 -340c-161 0 -225 153 -142 340c83 188 281 341 442 341zM230 96c74 0 183 109 242 244c60 136 48 245 -26 245s-182 -109 -242 -245c-59 -135 -48 -244 26 -244z" />
    <glyph glyph-name="eight" unicode="8" horiz-adv-x="700" 
d="M626 869c125 0 191 -85 148 -190c-30 -73 -105 -136 -189 -168c69 -47 92 -136 50 -238c-62 -151 -243 -273 -405 -273c-161 0 -241 122 -179 273c48 118 169 218 296 256c-38 35 -50 89 -25 150c43 105 179 190 304 190zM458 273c39 94 18 169 -45 169
c-64 0 -147 -75 -185 -169c-39 -93 -18 -169 45 -169c64 0 147 76 185 169zM632 679c25 61 8 111 -38 111c-47 0 -105 -50 -130 -111s-8 -111 38 -111c47 0 105 50 130 111z" />
    <glyph glyph-name="dollar" unicode="$" horiz-adv-x="544" 
d="M493 670c82 -29 130 -112 64 -207c-11 -15 -115 -39 -133 -17c66 119 14 152 -29 152c-35 0 -89 -45 -51 -142c30 -76 64 -143 76 -231c12 -97 -44 -181 -165 -215c-24 -7 -48 -10 -69 -10l-59 -111h-104l70 130c-80 40 -115 134 -78 222c0 0 141 24 125 0
c-50 -115 3 -153 48 -153c38 0 84 30 79 94c-5 65 -28 112 -77 231c-55 137 52 223 184 260c6 2 13 3 20 4l72 135h103z" />
    <glyph glyph-name="sterling" unicode="&#xa3;" horiz-adv-x="767" 
d="M410 223c148 -54 309 -139 401 -84c0 0 -8 -139 -136 -139c-103 0 -183 82 -313 142c-80 -117 -161 -142 -243 -142c-169 0 -192 315 159 253c4 8 9 16 13 25c3 7 8 18 15 32h-123l42 77h115c10 23 21 47 32 70c-41 10 -77 28 -100 50c-48 47 11 92 11 92
c34 -41 75 -64 117 -76c21 48 36 83 36 83c21 49 82 149 171 149c141 0 125 -184 29 -259c-34 -27 -79 -41 -124 -46c-9 -21 -18 -43 -27 -63h207l-41 -77h-200c-11 -25 -20 -45 -27 -59c-5 -9 -10 -19 -14 -28zM579 606c-9 -22 -22 -52 -36 -84c26 6 47 18 62 32
c52 53 47 110 20 110c-23 0 -35 -32 -46 -58zM106 77c34 0 70 25 124 99c-174 33 -188 -99 -124 -99z" />
    <glyph glyph-name="Euro" unicode="&#x20ac;" horiz-adv-x="624" 
d="M630 321c16 26 47 -33 35 -55c-58 -106 -210 -266 -368 -266c-116 0 -218 91 -201 242h-96l41 77h72c5 16 12 32 20 49h-74l41 77h77c122 187 276 236 353 236c135 0 153 -163 41 -231c-53 -32 -81 23 -81 23c86 62 90 146 36 146c-47 0 -127 -56 -201 -174l145 1
l-41 -77h-147c-8 -18 -14 -34 -20 -50h149l-41 -77h-126c-8 -79 22 -132 87 -132c129 0 253 139 299 211z" />
    <glyph glyph-name="ampersand" unicode="&#x26;" horiz-adv-x="834" 
d="M937 493c21 12 8 -91 -101 -140c-34 -16 -73 -15 -113 -9c-13 -165 -242 -344 -449 -344c-247 0 -343 205 -219 374c94 129 216 179 317 199c-70 56 -82 164 -6 269c89 123 225 144 273 144c226 0 245 -216 38 -355c-24 -15 -89 -9 -106 32c123 83 201 241 128 241
c-61 0 -158 -45 -214 -132c-47 -73 -43 -161 10 -187c9 1 16 1 24 1c24 0 42 -78 7 -78c-93 0 -236 -58 -296 -193c-42 -96 11 -166 104 -166c143 0 277 95 320 209c-70 17 -135 33 -170 -1c-21 -19 7 78 45 116c85 84 316 -33 408 20z" />
    <glyph glyph-name="percent" unicode="%" horiz-adv-x="816" 
d="M643 488h115l-604 -529h-115zM154 169c-75 0 -105 71 -66 159c39 89 131 160 207 160s105 -71 67 -160c-39 -88 -132 -159 -208 -159zM162 328c-28 -63 -23 -114 12 -114s86 51 114 114c27 64 22 115 -13 115c-34 0 -85 -51 -113 -115zM643 278c76 0 106 -71 67 -159
c-39 -89 -131 -160 -207 -160s-106 71 -67 160c39 88 132 159 207 159zM636 119c28 63 22 114 -12 114c-35 0 -86 -51 -114 -114c-28 -64 -22 -115 13 -115c34 0 85 51 113 115z" />
    <glyph glyph-name="agrave" unicode="&#xe0;" 
d="M992 621c20 20 21 -67 11 -78c-28 -29 -358 -361 -438 -437c-86 -82 -141 -106 -183 -106c-56 0 -86 34 -59 108c-59 -59 -130 -108 -199 -108c-136 0 -177 160 -35 376s270 288 358 288c57 0 99 -53 111 -112c35 65 59 111 59 111l159 1s-143 -266 -186 -347
c-15 -27 -42 -82 -34 -90c9 -9 32 13 58 35c39 32 341 320 378 359zM235 158c52 0 146 88 210 196c65 108 75 196 24 196c-52 0 -146 -88 -211 -196c-64 -108 -74 -196 -23 -196zM613 753c-36 20 -186 124 -248 168c-63 44 142 69 142 69l186 -195s-44 -62 -80 -42z" />
    <glyph glyph-name="aacute" unicode="&#xe1;" 
d="M992 621c20 20 21 -67 11 -78c-28 -29 -358 -361 -438 -437c-86 -82 -141 -106 -183 -106c-56 0 -86 34 -59 108c-59 -59 -130 -108 -199 -108c-136 0 -177 160 -35 376s270 288 358 288c57 0 99 -53 111 -112c35 65 59 111 59 111l159 1s-143 -266 -186 -347
c-15 -27 -42 -82 -34 -90c9 -9 32 13 58 35c39 32 341 320 378 359zM235 158c52 0 146 88 210 196c65 108 75 196 24 196c-52 0 -146 -88 -211 -196c-64 -108 -74 -196 -23 -196zM609 753c-36 -20 -80 42 -80 42l186 195s205 -25 142 -69c-62 -44 -212 -148 -248 -168z" />
    <glyph glyph-name="acircumflex" unicode="&#xe2;" 
d="M992 621c20 20 21 -67 11 -78c-28 -29 -358 -361 -438 -437c-86 -82 -141 -106 -183 -106c-56 0 -86 34 -59 108c-59 -59 -130 -108 -199 -108c-136 0 -177 160 -35 376s270 288 358 288c57 0 99 -53 111 -112c35 65 59 111 59 111l159 1s-143 -266 -186 -347
c-15 -27 -42 -82 -34 -90c9 -9 32 13 58 35c39 32 341 320 378 359zM235 158c52 0 146 88 210 196c65 108 75 196 24 196c-52 0 -146 -88 -211 -196c-64 -108 -74 -196 -23 -196zM724 985c5 3 111 -190 111 -190s-71 -62 -98 -42c-22 16 -47 43 -79 76
c-57 -32 -112 -62 -142 -76c-45 -20 -62 42 -62 42z" />
    <glyph glyph-name="atilde" unicode="&#xe3;" 
d="M992 621c20 20 21 -67 11 -78c-28 -29 -358 -361 -438 -437c-86 -82 -141 -106 -183 -106c-56 0 -86 34 -59 108c-59 -59 -130 -108 -199 -108c-136 0 -177 160 -35 376s270 288 358 288c57 0 99 -53 111 -112c35 65 59 111 59 111l159 1s-143 -266 -186 -347
c-15 -27 -42 -82 -34 -90c9 -9 32 13 58 35c39 32 341 320 378 359zM235 158c52 0 146 88 210 196c65 108 75 196 24 196c-52 0 -146 -88 -211 -196c-64 -108 -74 -196 -23 -196zM898 967c21 8 8 -66 -102 -101c-109 -36 -222 101 -361 3c-20 -14 8 55 45 83
c126 94 326 -23 418 15z" />
    <glyph glyph-name="adieresis" unicode="&#xe4;" 
d="M992 621c20 20 21 -67 11 -78c-28 -29 -358 -361 -438 -437c-86 -82 -141 -106 -183 -106c-56 0 -86 34 -59 108c-59 -59 -130 -108 -199 -108c-136 0 -177 160 -35 376s270 288 358 288c57 0 99 -53 111 -112c35 65 59 111 59 111l159 1s-143 -266 -186 -347
c-15 -27 -42 -82 -34 -90c9 -9 32 13 58 35c39 32 341 320 378 359zM235 158c52 0 146 88 210 196c65 108 75 196 24 196c-52 0 -146 -88 -211 -196c-64 -108 -74 -196 -23 -196zM595 867c-24 -68 -92 -124 -151 -124s-88 56 -63 124c24 69 91 124 150 124s88 -55 64 -124z
M903 867c-24 -68 -92 -124 -151 -124s-88 56 -63 124c24 69 91 124 150 124s88 -55 64 -124z" />
    <glyph glyph-name="ae" unicode="&#xe6;" horiz-adv-x="1215" 
d="M992 621c20 20 21 -67 11 -78c-28 -29 -358 -361 -438 -437c-86 -82 -141 -106 -183 -106c-56 0 -86 34 -59 108c-59 -59 -130 -108 -199 -108c-136 0 -177 160 -35 376s270 288 358 288c57 0 99 -53 111 -112c35 65 59 111 59 111l159 1s-143 -266 -186 -347
c-15 -27 -42 -82 -34 -90c9 -9 32 13 58 35c39 32 341 320 378 359zM235 158c52 0 146 88 210 196c65 108 75 196 24 196c-52 0 -146 -88 -211 -196c-64 -108 -74 -196 -23 -196zM1547 621c16 22 25 -61 17 -74c-147 -239 -399 -547 -646 -547c-245 0 -295 189 -158 408
c112 178 249 256 337 256c145 0 235 -138 92 -317c-86 -107 -185 -154 -272 -127c-22 6 -39 17 -53 30c-17 -80 18 -131 104 -131c172 0 387 233 579 502zM1119 550c-52 0 -146 -87 -211 -196c-2 -5 -5 -9 -8 -14c49 -38 105 0 152 39c64 54 118 171 67 171z" />
    <glyph glyph-name="egrave" unicode="&#xe8;" horiz-adv-x="553" 
d="M885 621c16 22 25 -61 17 -74c-147 -239 -399 -547 -646 -547c-245 0 -295 189 -158 408c112 178 249 256 337 256c145 0 235 -138 92 -317c-86 -107 -185 -154 -272 -127c-22 6 -39 17 -53 30c-17 -80 18 -131 104 -131c172 0 387 233 579 502zM457 550
c-52 0 -146 -87 -211 -196c-2 -5 -5 -9 -8 -14c49 -38 105 0 152 39c64 54 118 171 67 171zM592 753c-36 20 -186 124 -248 168c-63 44 142 69 142 69l186 -195s-44 -62 -80 -42z" />
    <glyph glyph-name="eacute" unicode="&#xe9;" horiz-adv-x="553" 
d="M885 621c16 22 25 -61 17 -74c-147 -239 -399 -547 -646 -547c-245 0 -295 189 -158 408c112 178 249 256 337 256c145 0 235 -138 92 -317c-86 -107 -185 -154 -272 -127c-22 6 -39 17 -53 30c-17 -80 18 -131 104 -131c172 0 387 233 579 502zM457 550
c-52 0 -146 -87 -211 -196c-2 -5 -5 -9 -8 -14c49 -38 105 0 152 39c64 54 118 171 67 171zM489 753c-36 -20 -80 42 -80 42l186 195s205 -25 142 -69c-62 -44 -212 -148 -248 -168z" />
    <glyph glyph-name="ecircumflex" unicode="&#xea;" horiz-adv-x="553" 
d="M885 621c16 22 25 -61 17 -74c-147 -239 -399 -547 -646 -547c-245 0 -295 189 -158 408c112 178 249 256 337 256c145 0 235 -138 92 -317c-86 -107 -185 -154 -272 -127c-22 6 -39 17 -53 30c-17 -80 18 -131 104 -131c172 0 387 233 579 502zM457 550
c-52 0 -146 -87 -211 -196c-2 -5 -5 -9 -8 -14c49 -38 105 0 152 39c64 54 118 171 67 171zM582 985c5 3 111 -190 111 -190s-71 -62 -98 -42c-22 16 -47 43 -79 76c-57 -32 -112 -62 -142 -76c-45 -20 -62 42 -62 42z" />
    <glyph glyph-name="edieresis" unicode="&#xeb;" horiz-adv-x="553" 
d="M885 621c16 22 25 -61 17 -74c-147 -239 -399 -547 -646 -547c-245 0 -295 189 -158 408c112 178 249 256 337 256c145 0 235 -138 92 -317c-86 -107 -185 -154 -272 -127c-22 6 -39 17 -53 30c-17 -80 18 -131 104 -131c172 0 387 233 579 502zM457 550
c-52 0 -146 -87 -211 -196c-2 -5 -5 -9 -8 -14c49 -38 105 0 152 39c64 54 118 171 67 171zM476 867c-24 -68 -92 -124 -151 -124s-88 56 -63 124c24 69 91 124 150 124s88 -55 64 -124zM784 867c-24 -68 -92 -124 -151 -124s-88 56 -63 124c24 69 91 124 150 124
s88 -55 64 -124z" />
    <glyph glyph-name="igrave" unicode="&#xec;" horiz-adv-x="349" 
d="M680 621c19 20 21 -67 11 -78c-28 -29 -358 -361 -438 -437c-87 -82 -141 -106 -183 -106c-66 0 -96 48 -39 152c41 75 274 511 274 511l159 1s-143 -266 -186 -347c-15 -27 -42 -82 -34 -90c8 -9 32 13 58 35c38 32 341 320 378 359zM483 753c-36 20 -186 124 -248 168
c-63 44 142 69 142 69l186 -195s-44 -62 -80 -42z" />
    <glyph glyph-name="iacute" unicode="&#xed;" horiz-adv-x="349" 
d="M680 621c19 20 21 -67 11 -78c-28 -29 -358 -361 -438 -437c-87 -82 -141 -106 -183 -106c-66 0 -96 48 -39 152c41 75 274 511 274 511l159 1s-143 -266 -186 -347c-15 -27 -42 -82 -34 -90c8 -9 32 13 58 35c38 32 341 320 378 359zM436 753c-36 -20 -80 42 -80 42
l186 195s205 -25 142 -69c-62 -44 -212 -148 -248 -168z" />
    <glyph glyph-name="icircumflex" unicode="&#xee;" horiz-adv-x="349" 
d="M680 621c19 20 21 -67 11 -78c-28 -29 -358 -361 -438 -437c-87 -82 -141 -106 -183 -106c-66 0 -96 48 -39 152c41 75 274 511 274 511l159 1s-143 -266 -186 -347c-15 -27 -42 -82 -34 -90c8 -9 32 13 58 35c38 32 341 320 378 359zM502 985c5 3 111 -190 111 -190
s-71 -62 -98 -42c-22 16 -47 43 -79 76c-57 -32 -112 -62 -142 -76c-45 -20 -62 42 -62 42z" />
    <glyph glyph-name="idieresis" unicode="&#xef;" horiz-adv-x="349" 
d="M680 621c19 20 21 -67 11 -78c-28 -29 -358 -361 -438 -437c-87 -82 -141 -106 -183 -106c-66 0 -96 48 -39 152c41 75 274 511 274 511l159 1s-143 -266 -186 -347c-15 -27 -42 -82 -34 -90c8 -9 32 13 58 35c38 32 341 320 378 359zM406 867
c-24 -68 -92 -124 -151 -124s-88 56 -63 124c24 69 91 124 150 124s88 -55 64 -124zM714 867c-24 -68 -92 -124 -151 -124s-88 56 -63 124c24 69 91 124 150 124s88 -55 64 -124z" />
    <glyph glyph-name="ntilde" unicode="&#xf1;" horiz-adv-x="716" 
d="M1047 621c19 20 21 -67 10 -78c-28 -29 -357 -361 -437 -437c-87 -82 -142 -106 -183 -106c-66 0 -96 48 -39 152c41 75 70 133 116 217c41 77 54 121 20 121c-58 0 -325 -250 -455 -490l2 3l-2 -3h-158l356 663h158l-163 -304c201 262 346 305 393 305
c78 0 139 -44 63 -189c-24 -47 -40 -77 -84 -158c-14 -27 -41 -82 -33 -90c8 -9 32 13 57 35c39 32 342 320 379 359zM820 967c21 8 8 -66 -102 -101c-109 -36 -222 101 -361 3c-20 -14 8 55 45 83c126 94 326 -23 418 15z" />
    <glyph glyph-name="ograve" unicode="&#xf2;" horiz-adv-x="587" 
d="M869 590c26 33 58 -36 48 -47c-9 -10 -223 -272 -378 -247c-10 -18 -21 -36 -33 -55c-109 -163 -227 -241 -337 -241c-136 0 -207 154 -75 376s270 288 359 288c18 0 24 -21 26 -45c23 25 50 40 76 40c55 0 68 -84 57 -153v0c-4 -28 -10 -62 -24 -101
c93 -17 258 155 281 185zM241 158c68 0 149 112 201 209c-33 52 -32 115 -13 168c-51 -30 -117 -99 -165 -181c-64 -108 -75 -196 -23 -196zM646 753c-36 20 -186 124 -248 168c-63 44 142 69 142 69l186 -195s-44 -62 -80 -42z" />
    <glyph glyph-name="ocircumflex" unicode="&#xf4;" horiz-adv-x="587" 
d="M869 590c26 33 58 -36 48 -47c-9 -10 -223 -272 -378 -247c-10 -18 -21 -36 -33 -55c-109 -163 -227 -241 -337 -241c-136 0 -207 154 -75 376s270 288 359 288c18 0 24 -21 26 -45c23 25 50 40 76 40c55 0 68 -84 57 -153v0c-4 -28 -10 -62 -24 -101
c93 -17 258 155 281 185zM241 158c68 0 149 112 201 209c-33 52 -32 115 -13 168c-51 -30 -117 -99 -165 -181c-64 -108 -75 -196 -23 -196zM640 985c5 3 111 -190 111 -190s-71 -62 -98 -42c-22 16 -47 43 -79 76c-57 -32 -112 -62 -142 -76c-45 -20 -62 42 -62 42z" />
    <glyph glyph-name="otilde" unicode="&#xf5;" horiz-adv-x="587" 
d="M869 590c26 33 58 -36 48 -47c-9 -10 -223 -272 -378 -247c-10 -18 -21 -36 -33 -55c-109 -163 -227 -241 -337 -241c-136 0 -207 154 -75 376s270 288 359 288c18 0 24 -21 26 -45c23 25 50 40 76 40c55 0 68 -84 57 -153v0c-4 -28 -10 -62 -24 -101
c93 -17 258 155 281 185zM241 158c68 0 149 112 201 209c-33 52 -32 115 -13 168c-51 -30 -117 -99 -165 -181c-64 -108 -75 -196 -23 -196zM863 967c21 8 8 -66 -102 -101c-109 -36 -222 101 -361 3c-20 -14 8 55 45 83c126 94 326 -23 418 15z" />
    <glyph glyph-name="oacute" unicode="&#xf3;" horiz-adv-x="587" 
d="M869 590c26 33 58 -36 48 -47c-9 -10 -223 -272 -378 -247c-10 -18 -21 -36 -33 -55c-109 -163 -227 -241 -337 -241c-136 0 -207 154 -75 376s270 288 359 288c18 0 24 -21 26 -45c23 25 50 40 76 40c55 0 68 -84 57 -153v0c-4 -28 -10 -62 -24 -101
c93 -17 258 155 281 185zM241 158c68 0 149 112 201 209c-33 52 -32 115 -13 168c-51 -30 -117 -99 -165 -181c-64 -108 -75 -196 -23 -196zM517 753c-36 -20 -80 42 -80 42l186 195s205 -25 142 -69c-62 -44 -212 -148 -248 -168z" />
    <glyph glyph-name="odieresis" unicode="&#xf6;" horiz-adv-x="587" 
d="M869 590c26 33 58 -36 48 -47c-9 -10 -223 -272 -378 -247c-10 -18 -21 -36 -33 -55c-109 -163 -227 -241 -337 -241c-136 0 -207 154 -75 376s270 288 359 288c18 0 24 -21 26 -45c23 25 50 40 76 40c55 0 68 -84 57 -153v0c-4 -28 -10 -62 -24 -101
c93 -17 258 155 281 185zM241 158c68 0 149 112 201 209c-33 52 -32 115 -13 168c-51 -30 -117 -99 -165 -181c-64 -108 -75 -196 -23 -196zM522 867c-24 -68 -92 -124 -151 -124s-88 56 -63 124c24 69 91 124 150 124s88 -55 64 -124zM830 867c-24 -68 -92 -124 -151 -124
s-88 56 -63 124c24 69 91 124 150 124s88 -55 64 -124z" />
    <glyph glyph-name="ugrave" unicode="&#xf9;" horiz-adv-x="670" 
d="M1001 621c19 20 21 -67 11 -78c-28 -29 -358 -361 -438 -437c-87 -82 -141 -106 -183 -106c-66 0 -96 48 -39 152c7 14 21 39 39 72c-107 -118 -231 -224 -296 -224c-100 0 -121 107 -64 212c41 75 242 451 242 451l159 1s-143 -266 -186 -347c-15 -27 -45 -90 13 -90
c56 0 225 178 285 282c46 87 82 154 82 154l159 1s-143 -266 -186 -347c-15 -27 -42 -82 -34 -90c8 -9 32 13 58 35c38 32 341 320 378 359zM630 753c-36 20 -186 124 -248 168c-63 44 142 69 142 69l186 -195s-44 -62 -80 -42z" />
    <glyph glyph-name="uacute" unicode="&#xfa;" horiz-adv-x="670" 
d="M1001 621c19 20 21 -67 11 -78c-28 -29 -358 -361 -438 -437c-87 -82 -141 -106 -183 -106c-66 0 -96 48 -39 152c7 14 21 39 39 72c-107 -118 -231 -224 -296 -224c-100 0 -121 107 -64 212c41 75 242 451 242 451l159 1s-143 -266 -186 -347c-15 -27 -45 -90 13 -90
c56 0 225 178 285 282c46 87 82 154 82 154l159 1s-143 -266 -186 -347c-15 -27 -42 -82 -34 -90c8 -9 32 13 58 35c38 32 341 320 378 359zM528 753c-36 -20 -80 42 -80 42l186 195s205 -25 142 -69c-62 -44 -212 -148 -248 -168z" />
    <glyph glyph-name="ucircumflex" unicode="&#xfb;" horiz-adv-x="670" 
d="M1001 621c19 20 21 -67 11 -78c-28 -29 -358 -361 -438 -437c-87 -82 -141 -106 -183 -106c-66 0 -96 48 -39 152c7 14 21 39 39 72c-107 -118 -231 -224 -296 -224c-100 0 -121 107 -64 212c41 75 242 451 242 451l159 1s-143 -266 -186 -347c-15 -27 -45 -90 13 -90
c56 0 225 178 285 282c46 87 82 154 82 154l159 1s-143 -266 -186 -347c-15 -27 -42 -82 -34 -90c8 -9 32 13 58 35c38 32 341 320 378 359zM639 985c5 3 111 -190 111 -190s-71 -62 -98 -42c-22 16 -47 43 -79 76c-57 -32 -112 -62 -142 -76c-45 -20 -62 42 -62 42z" />
    <glyph glyph-name="udieresis" unicode="&#xfc;" horiz-adv-x="670" 
d="M1001 621c19 20 21 -67 11 -78c-28 -29 -358 -361 -438 -437c-87 -82 -141 -106 -183 -106c-66 0 -96 48 -39 152c7 14 21 39 39 72c-107 -118 -231 -224 -296 -224c-100 0 -121 107 -64 212c41 75 242 451 242 451l159 1s-143 -266 -186 -347c-15 -27 -45 -90 13 -90
c56 0 225 178 285 282c46 87 82 154 82 154l159 1s-143 -266 -186 -347c-15 -27 -42 -82 -34 -90c8 -9 32 13 58 35c38 32 341 320 378 359zM589 867c-24 -68 -92 -124 -151 -124s-88 56 -63 124c24 69 91 124 150 124s88 -55 64 -124zM897 867c-24 -68 -92 -124 -151 -124
s-88 56 -63 124c24 69 91 124 150 124s88 -55 64 -124z" />
    <glyph glyph-name="yacute" unicode="&#xfd;" horiz-adv-x="675" 
d="M1005 621c20 19 21 -67 11 -78c-180 -191 -372 -343 -539 -464c-66 -124 -121 -227 -138 -256c-83 -141 -135 -221 -262 -221c-62 0 -154 44 -154 132c0 114 165 159 367 279l117 224c-110 -122 -240 -237 -307 -237c-100 0 -122 107 -65 212c41 75 242 451 242 451
l159 1s-143 -266 -186 -347c-15 -27 -44 -90 14 -90s237 192 290 293c1 2 2 4 3 4l73 140h158s-128 -244 -249 -470c158 133 346 311 466 427zM199 -161l34 66c-119 -85 -194 -147 -194 -193c0 -33 18 -43 39 -43c41 0 69 73 121 170zM520 753c-36 -20 -80 42 -80 42
l186 195s205 -25 142 -69c-62 -44 -212 -148 -248 -168z" />
    <glyph glyph-name="ydieresis" unicode="&#xff;" horiz-adv-x="675" 
d="M1005 621c20 19 21 -67 11 -78c-180 -191 -372 -343 -539 -464c-66 -124 -121 -227 -138 -256c-83 -141 -135 -221 -262 -221c-62 0 -154 44 -154 132c0 114 165 159 367 279l117 224c-110 -122 -240 -237 -307 -237c-100 0 -122 107 -65 212c41 75 242 451 242 451
l159 1s-143 -266 -186 -347c-15 -27 -44 -90 14 -90s237 192 290 293c1 2 2 4 3 4l73 140h158s-128 -244 -249 -470c158 133 346 311 466 427zM199 -161l34 66c-119 -85 -194 -147 -194 -193c0 -33 18 -43 39 -43c41 0 69 73 121 170zM573 867c-24 -68 -92 -124 -151 -124
s-88 56 -63 124c24 69 91 124 150 124s88 -55 64 -124zM881 867c-24 -68 -92 -124 -151 -124s-88 56 -63 124c24 69 91 124 150 124s88 -55 64 -124z" />
    <glyph glyph-name="Agrave" unicode="&#xc0;" horiz-adv-x="1054" 
d="M1384 621c20 20 21 -67 11 -78c-28 -29 -357 -361 -438 -437c-86 -82 -140 -106 -183 -106c-66 0 -96 48 -39 152c13 24 62 115 123 229h-146c-53 -58 -97 -108 -125 -140c-121 -141 -220 -240 -368 -240c-250 0 -110 452 460 463c215 223 502 522 502 522h158
s-314 -588 -357 -669c-15 -27 -42 -82 -33 -90c8 -9 31 13 57 35c39 32 341 320 378 359zM464 243c25 26 73 75 133 137c-302 -20 -458 -269 -360 -269c45 0 109 14 227 132zM787 465c44 0 86 1 117 2c55 103 115 215 164 308c-74 -81 -183 -201 -281 -310zM1263 1084
c-36 20 -186 124 -248 168c-63 44 142 69 142 69l186 -195s-44 -62 -80 -42z" />
    <glyph glyph-name="Aacute" unicode="&#xc1;" horiz-adv-x="1054" 
d="M1384 621c20 20 21 -67 11 -78c-28 -29 -357 -361 -438 -437c-86 -82 -140 -106 -183 -106c-66 0 -96 48 -39 152c13 24 62 115 123 229h-146c-53 -58 -97 -108 -125 -140c-121 -141 -220 -240 -368 -240c-250 0 -110 452 460 463c215 223 502 522 502 522h158
s-314 -588 -357 -669c-15 -27 -42 -82 -33 -90c8 -9 31 13 57 35c39 32 341 320 378 359zM464 243c25 26 73 75 133 137c-302 -20 -458 -269 -360 -269c45 0 109 14 227 132zM787 465c44 0 86 1 117 2c55 103 115 215 164 308c-74 -81 -183 -201 -281 -310zM1214 1084
c-36 -20 -80 42 -80 42l186 195s205 -25 142 -69c-62 -44 -212 -148 -248 -168z" />
    <glyph glyph-name="Acircumflex" unicode="&#xc2;" horiz-adv-x="1054" 
d="M1384 621c20 20 21 -67 11 -78c-28 -29 -357 -361 -438 -437c-86 -82 -140 -106 -183 -106c-66 0 -96 48 -39 152c13 24 62 115 123 229h-146c-53 -58 -97 -108 -125 -140c-121 -141 -220 -240 -368 -240c-250 0 -110 452 460 463c215 223 502 522 502 522h158
s-314 -588 -357 -669c-15 -27 -42 -82 -33 -90c8 -9 31 13 57 35c39 32 341 320 378 359zM464 243c25 26 73 75 133 137c-302 -20 -458 -269 -360 -269c45 0 109 14 227 132zM787 465c44 0 86 1 117 2c55 103 115 215 164 308c-74 -81 -183 -201 -281 -310zM1322 1316
c5 3 111 -190 111 -190s-71 -62 -98 -42c-22 16 -47 43 -79 76c-57 -32 -112 -62 -142 -76c-45 -20 -62 42 -62 42z" />
    <glyph glyph-name="Atilde" unicode="&#xc3;" horiz-adv-x="1054" 
d="M1384 621c20 20 21 -67 11 -78c-28 -29 -357 -361 -438 -437c-86 -82 -140 -106 -183 -106c-66 0 -96 48 -39 152c13 24 62 115 123 229h-146c-53 -58 -97 -108 -125 -140c-121 -141 -220 -240 -368 -240c-250 0 -110 452 460 463c215 223 502 522 502 522h158
s-314 -588 -357 -669c-15 -27 -42 -82 -33 -90c8 -9 31 13 57 35c39 32 341 320 378 359zM464 243c25 26 73 75 133 137c-302 -20 -458 -269 -360 -269c45 0 109 14 227 132zM787 465c44 0 86 1 117 2c55 103 115 215 164 308c-74 -81 -183 -201 -281 -310zM1463 1298
c21 8 8 -66 -102 -101c-109 -36 -222 101 -361 3c-20 -14 8 55 45 83c126 94 326 -23 418 15z" />
    <glyph glyph-name="Adieresis" unicode="&#xc4;" horiz-adv-x="1054" 
d="M1384 621c20 20 21 -67 11 -78c-28 -29 -357 -361 -438 -437c-86 -82 -140 -106 -183 -106c-66 0 -96 48 -39 152c13 24 62 115 123 229h-146c-53 -58 -97 -108 -125 -140c-121 -141 -220 -240 -368 -240c-250 0 -110 452 460 463c215 223 502 522 502 522h158
s-314 -588 -357 -669c-15 -27 -42 -82 -33 -90c8 -9 31 13 57 35c39 32 341 320 378 359zM464 243c25 26 73 75 133 137c-302 -20 -458 -269 -360 -269c45 0 109 14 227 132zM787 465c44 0 86 1 117 2c55 103 115 215 164 308c-74 -81 -183 -201 -281 -310zM1209 1198
c-24 -68 -92 -124 -151 -124s-88 56 -63 124c24 69 91 124 150 124s88 -55 64 -124zM1517 1198c-24 -68 -92 -124 -151 -124s-88 56 -63 124c24 69 91 124 150 124s88 -55 64 -124z" />
    <glyph glyph-name="AE" unicode="&#xc6;" horiz-adv-x="1666" 
d="M1384 621c20 20 21 -67 11 -78c-28 -29 -357 -361 -438 -437c-86 -82 -140 -106 -183 -106c-66 0 -96 48 -39 152c13 24 62 115 123 229h-146c-53 -58 -97 -108 -125 -140c-121 -141 -220 -240 -368 -240c-250 0 -110 452 460 463c215 223 502 522 502 522h158
s-314 -588 -357 -669c-15 -27 -42 -82 -33 -90c8 -9 31 13 57 35c39 32 341 320 378 359zM464 243c25 26 73 75 133 137c-302 -20 -458 -269 -360 -269c45 0 109 14 227 132zM787 465c44 0 86 1 117 2c55 103 115 215 164 308c-74 -81 -183 -201 -281 -310zM1813 466
c26 37 62 -49 42 -80c-97 -154 -337 -386 -566 -386c-266 0 -369 220 -236 402c101 139 233 193 341 214c-75 61 -88 177 -6 290c96 132 242 155 293 155c244 0 264 -233 41 -382c-25 -16 -95 -10 -114 34c133 90 216 259 138 259c-66 0 -170 -48 -230 -141
c-51 -79 -46 -174 11 -202c9 1 17 1 25 1c26 0 45 -84 8 -84c-100 0 -254 -62 -319 -207c-45 -103 12 -179 112 -179c187 0 384 201 460 306z" />
    <glyph glyph-name="Egrave" unicode="&#xc8;" horiz-adv-x="756" 
d="M933 466c26 37 62 -49 42 -80c-97 -154 -337 -386 -566 -386c-266 0 -369 220 -236 402c101 139 233 193 341 214c-75 61 -88 177 -6 290c96 132 242 155 293 155c244 0 264 -233 41 -382c-25 -16 -95 -10 -114 34c133 90 216 259 138 259c-66 0 -170 -48 -230 -141
c-51 -79 -46 -174 11 -202c9 1 17 1 25 1c26 0 45 -84 8 -84c-100 0 -254 -62 -319 -207c-45 -103 12 -179 112 -179c187 0 384 201 460 306zM853 1143c-36 20 -186 124 -248 168c-63 44 142 69 142 69l186 -195s-44 -62 -80 -42z" />
    <glyph glyph-name="Eacute" unicode="&#xc9;" horiz-adv-x="756" 
d="M933 466c26 37 62 -49 42 -80c-97 -154 -337 -386 -566 -386c-266 0 -369 220 -236 402c101 139 233 193 341 214c-75 61 -88 177 -6 290c96 132 242 155 293 155c244 0 264 -233 41 -382c-25 -16 -95 -10 -114 34c133 90 216 259 138 259c-66 0 -170 -48 -230 -141
c-51 -79 -46 -174 11 -202c9 1 17 1 25 1c26 0 45 -84 8 -84c-100 0 -254 -62 -319 -207c-45 -103 12 -179 112 -179c187 0 384 201 460 306zM771 1140c-36 -20 -80 42 -80 42l186 195s205 -25 142 -69c-62 -44 -212 -148 -248 -168z" />
    <glyph glyph-name="Ecircumflex" unicode="&#xca;" horiz-adv-x="756" 
d="M933 466c26 37 62 -49 42 -80c-97 -154 -337 -386 -566 -386c-266 0 -369 220 -236 402c101 139 233 193 341 214c-75 61 -88 177 -6 290c96 132 242 155 293 155c244 0 264 -233 41 -382c-25 -16 -95 -10 -114 34c133 90 216 259 138 259c-66 0 -170 -48 -230 -141
c-51 -79 -46 -174 11 -202c9 1 17 1 25 1c26 0 45 -84 8 -84c-100 0 -254 -62 -319 -207c-45 -103 12 -179 112 -179c187 0 384 201 460 306zM901 1370c5 3 111 -190 111 -190s-71 -62 -98 -42c-22 16 -47 43 -79 76c-57 -32 -112 -62 -142 -76c-45 -20 -62 42 -62 42z" />
    <glyph glyph-name="Edieresis" unicode="&#xcb;" horiz-adv-x="756" 
d="M933 466c26 37 62 -49 42 -80c-97 -154 -337 -386 -566 -386c-266 0 -369 220 -236 402c101 139 233 193 341 214c-75 61 -88 177 -6 290c96 132 242 155 293 155c244 0 264 -233 41 -382c-25 -16 -95 -10 -114 34c133 90 216 259 138 259c-66 0 -170 -48 -230 -141
c-51 -79 -46 -174 11 -202c9 1 17 1 25 1c26 0 45 -84 8 -84c-100 0 -254 -62 -319 -207c-45 -103 12 -179 112 -179c187 0 384 201 460 306zM799 1238c-24 -68 -92 -124 -151 -124s-88 56 -63 124c24 69 91 124 150 124s88 -55 64 -124zM1107 1238
c-24 -68 -92 -124 -151 -124s-88 56 -63 124c24 69 91 124 150 124s88 -55 64 -124z" />
    <glyph glyph-name="Igrave" unicode="&#xcc;" horiz-adv-x="710" 
d="M992 1076c200 0 66 -144 -78 -251c-72 -140 -181 -387 -227 -467c-170 -301 -319 -358 -467 -358c-235 0 -126 399 360 457c43 78 91 207 139 298c-113 -9 -226 24 -281 83c-63 67 27 131 27 131c82 -110 210 -134 307 -113c2 5 4 8 4 8c36 69 90 212 216 212zM238 111
c62 0 172 60 294 260c-258 -48 -384 -260 -294 -260zM1000 1154c-36 20 -186 124 -248 168c-63 44 142 69 142 69l186 -195s-44 -62 -80 -42z" />
    <glyph glyph-name="Iacute" unicode="&#xcd;" horiz-adv-x="710" 
d="M992 1076c200 0 66 -144 -78 -251c-72 -140 -181 -387 -227 -467c-170 -301 -319 -358 -467 -358c-235 0 -126 399 360 457c43 78 91 207 139 298c-113 -9 -226 24 -281 83c-63 67 27 131 27 131c82 -110 210 -134 307 -113c2 5 4 8 4 8c36 69 90 212 216 212zM238 111
c62 0 172 60 294 260c-258 -48 -384 -260 -294 -260zM893 1148c-36 -20 -80 42 -80 42l186 195s205 -25 142 -69c-62 -44 -212 -148 -248 -168z" />
    <glyph glyph-name="Icircumflex" unicode="&#xce;" horiz-adv-x="710" 
d="M992 1076c200 0 66 -144 -78 -251c-72 -140 -181 -387 -227 -467c-170 -301 -319 -358 -467 -358c-235 0 -126 399 360 457c43 78 91 207 139 298c-113 -9 -226 24 -281 83c-63 67 27 131 27 131c82 -110 210 -134 307 -113c2 5 4 8 4 8c36 69 90 212 216 212zM238 111
c62 0 172 60 294 260c-258 -48 -384 -260 -294 -260zM1080 1396c5 3 111 -190 111 -190s-71 -62 -98 -42c-22 16 -47 43 -79 76c-57 -32 -112 -62 -142 -76c-45 -20 -62 42 -62 42z" />
    <glyph glyph-name="Idieresis" unicode="&#xcf;" horiz-adv-x="710" 
d="M992 1076c200 0 66 -144 -78 -251c-72 -140 -181 -387 -227 -467c-170 -301 -319 -358 -467 -358c-235 0 -126 399 360 457c43 78 91 207 139 298c-113 -9 -226 24 -281 83c-63 67 27 131 27 131c82 -110 210 -134 307 -113c2 5 4 8 4 8c36 69 90 212 216 212zM238 111
c62 0 172 60 294 260c-258 -48 -384 -260 -294 -260zM973 1287c-24 -68 -92 -124 -151 -124s-88 56 -63 124c24 69 91 124 150 124s88 -55 64 -124zM1281 1287c-24 -68 -92 -124 -151 -124s-88 56 -63 124c24 69 91 124 150 124s88 -55 64 -124z" />
    <glyph glyph-name="Ntilde" unicode="&#xd1;" horiz-adv-x="1150" 
d="M1491 621c19 20 21 -67 10 -78c-28 -29 -367 -361 -447 -437c-87 -82 -141 -106 -184 -106c-65 0 -95 48 -38 152c26 48 184 357 304 587c48 91 47 161 -11 161c-99 0 -172 -78 -246 -210c-74 -142 -153 -289 -177 -332c-170 -300 -329 -357 -477 -357
c-235 0 -146 399 340 456c85 157 282 529 282 529h188s-11 -22 -30 -57c72 53 139 77 211 77c135 0 188 -96 98 -265c-90 -172 -201 -378 -226 -424c-14 -27 -41 -82 -33 -90c8 -9 32 13 57 35c39 32 342 320 379 359zM243 111c62 0 152 60 274 261
c-258 -49 -364 -261 -274 -261zM1367 1298c21 8 8 -66 -102 -101c-109 -36 -222 101 -361 3c-20 -14 8 55 45 83c126 94 326 -23 418 15z" />
    <glyph glyph-name="Ograve" unicode="&#xd2;" horiz-adv-x="859" 
d="M898 838c24 -11 42 -34 41 -67c-6 -361 -254 -771 -586 -771c-229 0 -399 249 -132 624c205 288 444 362 558 362c95 0 129 -67 119 -148zM375 76c154 0 334 291 400 551c-11 -8 -22 -16 -34 -23c-81 -46 -114 34 -114 34c133 90 216 259 138 259s-238 -105 -376 -329
s-182 -492 -14 -492zM813 1084c-36 20 -186 124 -248 168c-63 44 142 69 142 69l186 -195s-44 -62 -80 -42z" />
    <glyph glyph-name="Oacute" unicode="&#xd3;" horiz-adv-x="859" 
d="M898 838c24 -11 42 -34 41 -67c-6 -361 -254 -771 -586 -771c-229 0 -399 249 -132 624c205 288 444 362 558 362c95 0 129 -67 119 -148zM375 76c154 0 334 291 400 551c-11 -8 -22 -16 -34 -23c-81 -46 -114 34 -114 34c133 90 216 259 138 259s-238 -105 -376 -329
s-182 -492 -14 -492zM747 1084c-36 -20 -80 42 -80 42l186 195s205 -25 142 -69c-62 -44 -212 -148 -248 -168z" />
    <glyph glyph-name="Ocircumflex" unicode="&#xd4;" horiz-adv-x="859" 
d="M898 838c24 -11 42 -34 41 -67c-6 -361 -254 -771 -586 -771c-229 0 -399 249 -132 624c205 288 444 362 558 362c95 0 129 -67 119 -148zM375 76c154 0 334 291 400 551c-11 -8 -22 -16 -34 -23c-81 -46 -114 34 -114 34c133 90 216 259 138 259s-238 -105 -376 -329
s-182 -492 -14 -492zM893 1316c5 3 111 -190 111 -190s-71 -62 -98 -42c-22 16 -47 43 -79 76c-57 -32 -112 -62 -142 -76c-45 -20 -62 42 -62 42z" />
    <glyph glyph-name="Otilde" unicode="&#xd5;" horiz-adv-x="859" 
d="M898 838c24 -11 42 -34 41 -67c-6 -361 -254 -771 -586 -771c-229 0 -399 249 -132 624c205 288 444 362 558 362c95 0 129 -67 119 -148zM375 76c154 0 334 291 400 551c-11 -8 -22 -16 -34 -23c-81 -46 -114 34 -114 34c133 90 216 259 138 259s-238 -105 -376 -329
s-182 -492 -14 -492zM1052 1298c21 8 8 -66 -102 -101c-109 -36 -222 101 -361 3c-20 -14 8 55 45 83c126 94 326 -23 418 15z" />
    <glyph glyph-name="Odieresis" unicode="&#xd6;" horiz-adv-x="859" 
d="M898 838c24 -11 42 -34 41 -67c-6 -361 -254 -771 -586 -771c-229 0 -399 249 -132 624c205 288 444 362 558 362c95 0 129 -67 119 -148zM375 76c154 0 334 291 400 551c-11 -8 -22 -16 -34 -23c-81 -46 -114 34 -114 34c133 90 216 259 138 259s-238 -105 -376 -329
s-182 -492 -14 -492zM783 1198c-24 -68 -92 -124 -151 -124s-88 56 -63 124c24 69 91 124 150 124s88 -55 64 -124zM1091 1198c-24 -68 -92 -124 -151 -124s-88 56 -63 124c24 69 91 124 150 124s88 -55 64 -124z" />
    <glyph glyph-name="Ugrave" unicode="&#xd9;" horiz-adv-x="961" 
d="M1292 621c19 20 21 -67 11 -78c-28 -29 -358 -361 -438 -437c-87 -82 -141 -106 -183 -106c-66 0 -96 48 -39 152c10 18 41 77 83 155c-124 -162 -271 -306 -401 -306c-134 0 -178 96 -88 265c91 172 229 435 254 480c44 79 81 156 40 156s-180 -124 -231 -270
c-80 27 -76 51 -56 95s186 280 386 280c66 0 137 -48 80 -152c-26 -48 -175 -324 -296 -555c-48 -90 -70 -161 -23 -161c168 0 507 520 616 695c48 90 81 152 81 152h159s-314 -588 -357 -669c-15 -27 -42 -82 -34 -90c8 -9 32 13 58 35c38 32 341 320 378 359zM923 1084
c-36 20 -186 124 -248 168c-63 44 142 69 142 69l186 -195s-44 -62 -80 -42z" />
    <glyph glyph-name="Uacute" unicode="&#xda;" horiz-adv-x="961" 
d="M1292 621c19 20 21 -67 11 -78c-28 -29 -358 -361 -438 -437c-87 -82 -141 -106 -183 -106c-66 0 -96 48 -39 152c10 18 41 77 83 155c-124 -162 -271 -306 -401 -306c-134 0 -178 96 -88 265c91 172 229 435 254 480c44 79 81 156 40 156s-180 -124 -231 -270
c-80 27 -76 51 -56 95s186 280 386 280c66 0 137 -48 80 -152c-26 -48 -175 -324 -296 -555c-48 -90 -70 -161 -23 -161c168 0 507 520 616 695c48 90 81 152 81 152h159s-314 -588 -357 -669c-15 -27 -42 -82 -34 -90c8 -9 32 13 58 35c38 32 341 320 378 359zM898 1084
c-36 -20 -80 42 -80 42l186 195s205 -25 142 -69c-62 -44 -212 -148 -248 -168z" />
    <glyph glyph-name="Ucircumflex" unicode="&#xdb;" horiz-adv-x="961" 
d="M1292 621c19 20 21 -67 11 -78c-28 -29 -358 -361 -438 -437c-87 -82 -141 -106 -183 -106c-66 0 -96 48 -39 152c10 18 41 77 83 155c-124 -162 -271 -306 -401 -306c-134 0 -178 96 -88 265c91 172 229 435 254 480c44 79 81 156 40 156s-180 -124 -231 -270
c-80 27 -76 51 -56 95s186 280 386 280c66 0 137 -48 80 -152c-26 -48 -175 -324 -296 -555c-48 -90 -70 -161 -23 -161c168 0 507 520 616 695c48 90 81 152 81 152h159s-314 -588 -357 -669c-15 -27 -42 -82 -34 -90c8 -9 32 13 58 35c38 32 341 320 378 359zM1022 1316
c5 3 111 -190 111 -190s-71 -62 -98 -42c-22 16 -47 43 -79 76c-57 -32 -112 -62 -142 -76c-45 -20 -62 42 -62 42z" />
    <glyph glyph-name="Udieresis" unicode="&#xdc;" horiz-adv-x="961" 
d="M1292 621c19 20 21 -67 11 -78c-28 -29 -358 -361 -438 -437c-87 -82 -141 -106 -183 -106c-66 0 -96 48 -39 152c10 18 41 77 83 155c-124 -162 -271 -306 -401 -306c-134 0 -178 96 -88 265c91 172 229 435 254 480c44 79 81 156 40 156s-180 -124 -231 -270
c-80 27 -76 51 -56 95s186 280 386 280c66 0 137 -48 80 -152c-26 -48 -175 -324 -296 -555c-48 -90 -70 -161 -23 -161c168 0 507 520 616 695c48 90 81 152 81 152h159s-314 -588 -357 -669c-15 -27 -42 -82 -34 -90c8 -9 32 13 58 35c38 32 341 320 378 359zM904 1198
c-24 -68 -92 -124 -151 -124s-88 56 -63 124c24 69 91 124 150 124s88 -55 64 -124zM1212 1198c-24 -68 -92 -124 -151 -124s-88 56 -63 124c24 69 91 124 150 124s88 -55 64 -124z" />
    <glyph glyph-name="Yacute" unicode="&#xdd;" horiz-adv-x="940" 
d="M1098 986h168s-430 -808 -480 -896c-170 -301 -329 -358 -477 -358c-235 0 -126 400 360 457c30 54 74 136 124 228c-95 -102 -211 -189 -332 -189c-135 0 -178 96 -88 266c90 171 113 207 138 252c44 79 81 156 40 156s-180 -124 -231 -270c-80 27 -76 51 -56 95
s186 280 386 280c66 0 137 -48 80 -152c-26 -48 -60 -96 -181 -327c-47 -91 -70 -161 -22 -161c143 0 354 266 464 419c62 116 107 200 107 200zM327 -157c62 0 172 60 294 260c-258 -48 -384 -260 -294 -260zM900 1084c-36 -20 -80 42 -80 42l186 195s205 -25 142 -69
c-62 -44 -212 -148 -248 -168z" />
    <glyph glyph-name="a.alt" 
d="M795 200c0 -142 -113 -361 -471 -361c-34 0 -1448 -11 -1758 -237c-116 81 -495 291 -495 291s2119 29 2260 29c279 0 417 164 417 238c0 82 -95 36 -183 -54c-83 -85 -141 -106 -183 -106c-56 0 -86 34 -59 108c-59 -59 -130 -108 -199 -108c-136 0 -177 160 -35 376
s270 288 358 288c57 0 99 -53 111 -112c35 65 59 111 59 111l159 1s-143 -266 -186 -347c-15 -27 -42 -82 -34 -90c9 -9 32 13 58 35c80 66 181 37 181 -62zM235 158c52 0 146 88 210 196c65 108 75 196 24 196c-52 0 -146 -88 -211 -196c-64 -108 -74 -196 -23 -196z" />
    <glyph glyph-name="c.alt" horiz-adv-x="562" 
d="M575 262c78 68 181 37 181 -62c0 -142 -113 -361 -471 -361c-34 0 -1448 -11 -1758 -237c-116 81 -495 291 -495 291s2119 29 2260 29c279 0 417 164 417 238c0 82 -91 29 -186 -54c-81 -71 -181 -106 -271 -106c-226 0 -296 189 -159 408c112 178 249 256 338 256
c144 0 229 -133 91 -317c-51 -67 -137 32 -137 32c64 54 119 171 67 171s-146 -87 -210 -196c-82 -138 -59 -235 59 -235c84 0 175 58 274 143z" />
    <glyph glyph-name="d.alt" 
d="M564 106c-88 -80 -140 -106 -182 -106c-56 0 -86 34 -59 108c-59 -59 -130 -108 -199 -108c-136 0 -177 160 -35 376s270 288 358 288c57 0 99 -52 111 -111c114 214 231 433 231 433h158s-314 -588 -357 -669c-15 -27 -42 -82 -34 -90c9 -9 33 13 58 35
c79 67 182 37 182 -62c0 -142 -113 -361 -471 -361c-34 0 -1448 -11 -1758 -237c-116 81 -495 291 -495 291s2119 29 2260 29c279 0 417 164 417 238c0 82 -92 31 -185 -54zM235 158c52 0 146 88 210 196c65 108 75 196 24 196c-52 0 -146 -88 -211 -196
c-64 -108 -74 -196 -23 -196z" />
    <glyph glyph-name="e.alt" horiz-adv-x="553" 
d="M524 105c-83 -68 -178 -105 -268 -105c-245 0 -295 189 -158 408c112 178 249 256 337 256c145 0 235 -138 92 -317c-86 -107 -185 -154 -272 -127c-22 6 -39 17 -53 30c-17 -80 18 -131 104 -131c81 0 176 61 269 143c79 68 182 37 182 -62c0 -142 -114 -361 -471 -361
c-34 0 -1448 -11 -1758 -237c-116 81 -495 291 -495 291s2119 29 2260 29c278 0 417 164 417 238c0 82 -89 25 -186 -55zM457 550c-52 0 -146 -87 -211 -196c-2 -5 -5 -9 -8 -14c49 -38 105 0 152 39c64 54 118 171 67 171z" />
    <glyph glyph-name="h.alt" horiz-adv-x="716" 
d="M618 106c-87 -81 -141 -106 -182 -106c-66 0 -95 48 -39 152c41 75 71 133 116 217c42 77 54 121 20 121c-57 0 -324 -250 -454 -490h-158l529 986h158l-336 -627c200 262 345 305 393 305c77 0 138 -51 70 -178c-26 -47 -48 -88 -91 -169c-15 -27 -41 -82 -33 -90
c8 -9 32 13 57 35c78 68 182 37 182 -62c0 -142 -114 -361 -472 -361c-33 0 -1447 -11 -1758 -237c-116 81 -495 291 -495 291s2119 29 2260 29c279 0 417 164 417 238c0 82 -92 32 -184 -54z" />
    <glyph glyph-name="i.alt" horiz-adv-x="349" 
d="M302 262c79 67 181 37 181 -62c0 -142 -113 -361 -471 -361c-34 0 -1448 -11 -1758 -237c-116 81 -495 291 -495 291s2119 29 2260 29c279 0 417 164 417 238c0 82 -92 32 -184 -54c-88 -81 -140 -106 -182 -106c-66 0 -96 48 -39 152c41 75 274 511 274 511l159 1
s-143 -266 -186 -347c-15 -27 -42 -82 -34 -90c8 -9 32 13 58 35zM537 1013c62 0 89 -50 62 -111s-99 -110 -160 -110s-89 49 -62 110c28 61 99 111 160 111z" />
    <glyph glyph-name="k.alt" horiz-adv-x="716" 
d="M618 106c-87 -81 -141 -106 -182 -106c-66 0 -95 48 -39 152c41 75 107 195 16 195c-58 0 -204 -107 -334 -347h-158l529 986h158l-270 -503l259 180l208 1l-300 -190h16c95 0 167 -104 90 -247c8 -9 32 13 57 35c78 68 181 37 181 -62c0 -142 -113 -361 -471 -361
c-34 0 -1448 -11 -1758 -237c-116 81 -495 291 -495 291s2119 29 2260 29c279 0 417 164 417 238c0 82 -92 32 -184 -54z" />
    <glyph glyph-name="l.alt" horiz-adv-x="357" 
d="M252 105c-87 -81 -140 -105 -182 -105c-66 0 -96 48 -39 152c41 75 445 834 445 834h159s-314 -588 -357 -669c-15 -27 -42 -82 -34 -90c8 -9 32 12 58 34c79 68 182 37 182 -62c0 -143 -114 -362 -472 -362c-34 0 -1447 -10 -1758 -236c-116 81 -495 290 -495 290
s2119 30 2260 30c279 0 417 163 417 238c0 81 -92 32 -184 -54z" />
    <glyph glyph-name="m.alt" horiz-adv-x="1111" 
d="M1062 262c79 68 182 36 182 -63c0 -143 -114 -362 -472 -362c-34 0 -1447 -10 -1758 -236c-116 81 -495 290 -495 290s2119 30 2260 30c279 0 417 163 417 238c0 81 -91 33 -183 -53c-86 -82 -141 -106 -182 -106c-66 0 -96 48 -39 152c41 75 71 133 116 217
c42 77 54 121 20 121c-54 0 -293 -221 -429 -447c-14 -26 -23 -43 -23 -43h-158s147 277 196 370c41 77 54 120 20 120c-58 0 -325 -250 -455 -490l2 3l-2 -3h-158l356 663h158l-163 -305c201 263 346 306 393 306c78 0 143 -50 63 -189c-21 -38 -35 -65 -62 -117
c201 263 346 306 394 306c77 0 139 -44 63 -189c-25 -47 -41 -77 -84 -158c-15 -27 -42 -82 -33 -90c8 -9 31 13 56 35z" />
    <glyph glyph-name="n.alt" horiz-adv-x="716" 
d="M619 106c-87 -82 -141 -106 -182 -106c-66 0 -96 48 -39 152c41 75 70 133 116 217c41 77 54 121 20 121c-58 0 -325 -250 -455 -490l2 3l-2 -3h-158l356 663h158l-163 -304c201 262 346 305 393 305c78 0 139 -44 63 -189c-24 -47 -40 -77 -84 -158
c-14 -27 -41 -82 -33 -90c8 -9 32 13 57 35c78 68 181 36 181 -63c0 -143 -113 -362 -471 -362c-34 0 -1448 -10 -1758 -236c-116 81 -495 290 -495 290s2119 30 2260 30c279 0 417 163 417 238c0 81 -91 33 -183 -53z" />
    <glyph glyph-name="o.alt" horiz-adv-x="587" 
d="M583 393c68 -84 158 -110 158 -194c0 -143 -113 -362 -471 -362c-34 0 -1448 -10 -1758 -236c-116 81 -495 290 -495 290s2119 30 2260 30c279 0 417 163 417 238c0 72 -95 79 -168 115c-6 -11 -13 -22 -20 -33c-109 -163 -227 -241 -337 -241c-136 0 -207 154 -75 376
s270 288 359 288c18 0 24 -21 26 -45c23 25 50 40 76 40c55 0 68 -84 57 -153c-4 -28 -10 -62 -24 -101zM241 158c68 0 149 112 201 209c-33 52 -32 115 -13 168c-51 -30 -117 -99 -165 -181c-64 -108 -75 -196 -23 -196z" />
    <glyph glyph-name="r.alt" horiz-adv-x="473" 
d="M376 106c-86 -82 -142 -106 -183 -106c-66 0 -95 48 -39 152c41 75 96 184 145 266c51 85 -10 92 -34 104c-54 28 -132 116 -59 208c58 72 145 58 194 26c53 -34 5 -101 -55 -166c6 -7 13 -13 22 -18c77 -44 176 7 109 -121c-25 -48 -32 -53 -75 -134
c-15 -27 -41 -82 -33 -90c8 -9 32 13 57 35c78 68 182 36 182 -63c0 -143 -114 -362 -472 -362c-34 0 -1447 -10 -1758 -236c-116 81 -495 290 -495 290s2119 30 2260 30c279 0 417 163 417 238c0 81 -91 33 -183 -53z" />
    <glyph glyph-name="s.alt" horiz-adv-x="427" 
d="M381 270c75 15 144 2 144 -71c0 -143 -114 -362 -472 -362c-34 0 -1447 -10 -1758 -236c-116 81 -495 290 -495 290s2119 30 2260 30c279 0 417 163 417 238c0 57 -52 53 -122 35c-68 -163 -167 -194 -266 -194c-62 0 -150 20 -134 107c12 69 130 92 258 126
c10 30 18 66 27 113c28 157 38 352 213 364s-9 -145 -9 -145l-40 -200c-4 -25 -10 -49 -16 -71zM134 91c12 16 25 30 38 50c-58 -18 -102 -34 -106 -55c-7 -37 43 -29 68 5z" />
    <glyph glyph-name="t.alt" horiz-adv-x="402" 
d="M253 106c-87 -82 -141 -106 -183 -106c-66 0 -96 48 -39 152c20 37 127 238 232 433h-116c17 32 27 50 27 50h115c99 185 130 239 130 239h159s-38 -65 -130 -239l119 1s-10 -19 -27 -51h-119c-66 -124 -126 -236 -143 -268c-15 -27 -42 -82 -34 -90c8 -9 32 13 58 35
c78 67 181 36 181 -63c0 -143 -114 -362 -472 -362c-33 0 -1447 -10 -1758 -236c-116 81 -495 290 -495 290s2119 30 2260 30c279 0 417 163 417 238c0 81 -91 33 -182 -53z" />
    <glyph glyph-name="u.alt" horiz-adv-x="670" 
d="M573 106c-87 -82 -140 -106 -182 -106c-66 0 -96 48 -39 152c7 14 21 39 39 72c-107 -118 -231 -224 -296 -224c-100 0 -121 107 -64 212c41 75 242 451 242 451l159 1s-143 -266 -186 -347c-15 -27 -45 -90 13 -90c56 0 225 178 285 282c46 87 82 154 82 154l159 1
s-143 -266 -186 -347c-15 -27 -42 -82 -34 -90c8 -9 31 13 57 35c79 67 181 36 181 -63c0 -143 -114 -362 -472 -362c-33 0 -1447 -10 -1758 -236c-116 81 -495 290 -495 290s2119 30 2260 30c279 0 417 163 417 238c0 81 -90 33 -182 -53z" />
    <glyph glyph-name="v.alt" horiz-adv-x="550" 
d="M572 411c60 -72 120 -139 120 -212c0 -143 -114 -362 -472 -362c-33 0 -1447 -10 -1758 -236c-116 81 -495 290 -495 290s2119 30 2260 30c279 0 418 163 418 238c0 66 -69 118 -136 154c-165 -244 -255 -313 -339 -313c-114 0 -148 99 -103 214c52 134 181 449 181 449
l158 1s-93 -240 -148 -379c-19 -48 -16 -92 29 -92c57 0 112 77 169 180c-32 106 76 293 158 293c29 0 79 -42 35 -123c-18 -32 -74 -127 -74 -127z" />
    <glyph glyph-name="w.alt" horiz-adv-x="908" 
d="M927 407c60 -70 117 -136 117 -208c0 -143 -114 -362 -472 -362c-33 0 -1447 -10 -1758 -236c-116 81 -495 290 -495 290s2119 30 2260 30c279 0 418 163 418 238c0 65 -66 116 -132 151c-164 -242 -253 -310 -338 -310c-114 0 -147 99 -102 214c10 25 22 55 35 89
c-118 -144 -284 -303 -364 -303c-100 0 -121 107 -64 212c41 75 242 451 242 451l159 1s-168 -306 -211 -387c-15 -28 -44 -91 14 -91c54 0 237 205 304 315c36 90 66 162 66 162l158 1s-103 -244 -158 -383c-19 -48 -16 -92 29 -92c57 0 122 81 179 184
c-32 106 76 293 157 293c30 0 80 -42 36 -123c-18 -32 -74 -127 -74 -127z" />
    <glyph glyph-name="x.alt" horiz-adv-x="540" 
d="M469 106c-87 -82 -104 -105 -141 -105c-57 0 -76 48 -70 152c1 14 3 41 5 76c-124 -104 -235 -198 -267 -228l-169 -1c20 17 237 191 443 357c8 144 17 307 17 307h158s-4 -85 -10 -174c112 90 197 160 209 172c19 21 53 -66 43 -77c-12 -13 -126 -108 -258 -218
c-2 -20 -2 -37 -3 -49c-2 -28 -13 -118 6 -118c20 0 40 23 86 62c78 67 181 36 181 -63c0 -143 -114 -362 -472 -362c-33 0 -1447 -10 -1758 -236c-116 81 -495 290 -495 290s2119 30 2260 30c279 0 417 163 417 238c0 81 -90 34 -182 -53z" />
    <glyph glyph-name="ss.01" horiz-adv-x="3160" 
d="M3130 -79l-7 -84c-34 0 -2628 -236 -2628 -236l-495 290s2989 30 3130 30z" />
    <glyph glyph-name="ss.02" horiz-adv-x="3139" 
d="M3130 -79l-7 -84c-34 0 -1731 168 -2288 -411c-116 342 -835 465 -835 465s2989 30 3130 30z" />
    <glyph glyph-name="ss.03" horiz-adv-x="3163" 
d="M3130 -79l-7 -84c-34 0 -1622 -14 -2288 -494c-316 368 -835 548 -835 548s2989 30 3130 30z" />
    <glyph glyph-name="ss.04" horiz-adv-x="3177" 
d="M3130 -79l-7 -84c-34 0 -2317 -10 -2628 -236c-116 81 -495 290 -495 290s2989 30 3130 30z" />
    <glyph glyph-name="ss.05" horiz-adv-x="3164" 
d="M3130 -101l-7 -83c-34 0 -987 149 -1664 -289c-479 234 -1459 -53 -1459 -53c1139 592 3050 425 3130 425z" />
    <glyph glyph-name="ss.06" horiz-adv-x="3177" 
d="M3130 -101l-7 -83c-34 0 -1754 167 -2628 -632c-172 231 -495 290 -495 290c1139 592 3050 425 3130 425z" />
    <glyph glyph-name="ss.07" horiz-adv-x="3164" 
d="M3130 -101l-7 -83c-34 0 -1716 178 -2628 -632l-495 290c1139 592 3050 425 3130 425z" />
    </font>
</defs>
</svg>
